<svg xmlns="http://www.w3.org/2000/svg" width="67.24" height="74.16"><g data-name="Сгруппировать 11571"><g data-name="Сгруппировать 11091" fill="none" stroke="#0c380f" stroke-miterlimit="10" stroke-width="3"><path data-name="Контур 4777" d="M57.282 4.91l-4.186-2.821a2.256 2.256 0 00-3.13.609L23.645 41.757a2.255 2.255 0 00.61 3.13l4.186 2.82a2.254 2.254 0 003.129-.61L57.892 8.039a2.256 2.256 0 00-.61-3.129z"/><path data-name="Контур 4778" d="M2.842 72.627c13.149-.153 23.3-17.474 23.3-17.474a2.629 2.629 0 00-.711-3.648l-3.567-2.4a2.628 2.628 0 00-3.648.711z"/><path data-name="Линия 149" stroke-linecap="round" d="M28.715 47.894l-2.699 4.005"/><path data-name="Линия 150" stroke-linecap="round" d="M21.317 48.732l2.699-4.005"/><path data-name="Линия 151" stroke-linecap="round" d="M34.206 34.636l13.123-19.474"/></g><path data-name="Линия 152" fill="none" stroke="#0c380f" stroke-linecap="round" stroke-miterlimit="10" stroke-width="3" d="M16.998 72.627h6.272"/><path data-name="Линия 153" fill="none" stroke="#0c380f" stroke-linecap="round" stroke-miterlimit="10" stroke-width="3" d="M31.155 72.627h6.272"/><path data-name="Линия 154" fill="none" stroke="#0c380f" stroke-linecap="round" stroke-miterlimit="10" stroke-width="3" d="M45.312 72.627h6.271"/><path data-name="Линия 155" fill="none" stroke="#0c380f" stroke-linecap="round" stroke-miterlimit="10" stroke-width="3" d="M59.468 72.627h6.271"/><path data-name="Контур 4779" d="M24.277 63.501a51.307 51.307 0 01-3.839 4.1h45.3v-4.1z" fill="#145a19"/></g></svg>