<svg xmlns="http://www.w3.org/2000/svg" width="75.977" height="73.486"><g data-name="Сгруппировать 11753" transform="translate(-1766.474 -793.626)"><path data-name="Контур 4690" d="M1825.194 801.008c-2.435 2.91-2.646 6.744-.472 8.562s5.909.933 8.344-1.977 2.646-6.744.472-8.562-5.909-.934-8.344 1.977z" fill="none" stroke="#0c380f" stroke-miterlimit="10" stroke-width="3"/><path data-name="Контур 4691" d="M1827.607 803.426a4.674 4.674 0 00-.991 2.46 1.388 1.388 0 00.282 1.083.885.885 0 00.573.155 4.275 4.275 0 002.992-1.707 5.45 5.45 0 00.9-1.486 4.724 4.724 0 01-3.756-.505z" fill="#145a19"/><path data-name="Контур 4692" d="M1797.179 805.045l.185-.185c1.267-1.259 3.872-3.372 7.1-3.372s5.831 2.113 7.1 3.372" fill="none" stroke="#0c380f" stroke-linecap="round" stroke-miterlimit="10" stroke-width="3"/><path data-name="Контур 4693" d="M1835.505 796.625a2.776 2.776 0 014.792 1.05 15.627 15.627 0 01-5.307 16.487 13.233 13.233 0 01-7.163 2.634c-4.056.4-10.967-.148-17.738-6.37-.316-.291-.617-.6-.921-.9-.706-.7-2.618-2.385-4.706-2.385s-4 1.683-4.706 2.385c-.3.3-.605.609-.921.9-6.771 6.222-13.683 6.767-17.738 6.37a13.233 13.233 0 01-7.163-2.634 15.627 15.627 0 01-5.307-16.487 2.776 2.776 0 014.793-1.05" fill="none" stroke="#0c380f" stroke-linecap="round" stroke-miterlimit="10" stroke-width="3"/><ellipse data-name="Эллипс 4" cx="5.132" cy="6.871" rx="5.132" ry="6.871" transform="rotate(-39.91 1989.14 -2037.354)" fill="none" stroke="#0c380f" stroke-miterlimit="10" stroke-width="3"/><path data-name="Контур 4694" d="M1781.319 803.426a4.673 4.673 0 01.992 2.46 1.385 1.385 0 01-.282 1.083.885.885 0 01-.573.155 4.275 4.275 0 01-2.992-1.707 5.45 5.45 0 01-.9-1.486 4.723 4.723 0 003.755-.505z" fill="#145a19"/><path data-name="Контур 4695" d="M1787.76 816.391s4.589.794 5.623 10.825a17.73 17.73 0 001.62 5.906 14.335 14.335 0 002.087 3.205s-1.39 8.881 1.343 12.555l-.348.423a5.333 5.333 0 00-.976 4.953l3.492 11.352h3.863" fill="none" stroke="#0c380f" stroke-linecap="round" stroke-miterlimit="10" stroke-width="3"/><path data-name="Контур 4696" d="M1821.163 816.391s-4.589.794-5.623 10.825a17.732 17.732 0 01-1.619 5.906 14.364 14.364 0 01-2.088 3.205s1.39 8.881-1.343 12.555l.348.423a5.333 5.333 0 01.976 4.953l-3.491 11.352h-3.86" fill="none" stroke="#0c380f" stroke-linecap="round" stroke-miterlimit="10" stroke-width="3"/><path data-name="Контур 4697" d="M1796.889 827.782a22.635 22.635 0 0116.372-6.982h.166a17.091 17.091 0 011.372-3.086 28.85 28.85 0 01-7-4.8c-.283-.259-.557-.531-.829-.8l-.187-.187a2.615 2.615 0 00-4.63 0l-.173.174c-.278.277-.555.553-.844.819a28.835 28.835 0 01-7.005 4.8 22.663 22.663 0 012.63 9.146c.03.316.08.616.128.916z" fill="#145a19"/><path data-name="Контур 4698" d="M1798.433 848.88a8.128 8.128 0 004.476 1.366" fill="none" stroke="#0c380f" stroke-linecap="round" stroke-miterlimit="10" stroke-width="3"/><path data-name="Контур 4699" d="M1810.493 848.88a8.127 8.127 0 01-4.475 1.366" fill="none" stroke="#0c380f" stroke-linecap="round" stroke-miterlimit="10" stroke-width="3"/><path data-name="Линия 130" fill="none" stroke="#0c380f" stroke-linecap="round" stroke-miterlimit="10" stroke-width="3" d="M1804.463 845.064v-9.611"/></g></svg>