<svg xmlns="http://www.w3.org/2000/svg" width="69.677" height="74.346"><g data-name="Сгруппировать 12269"><g data-name="Сгруппировать 11752"><path data-name="Контур 5269" d="M15.207 12.204l2.084 9.812 3.27-5.249 2.5 12.661 3.27-5.249 1.9 9.341" fill="none" stroke="#0c380f" stroke-linecap="round" stroke-miterlimit="10" stroke-width="3"/><g data-name="Сгруппировать 11674"><g data-name="Сгруппировать 11256"><path data-name="Контур 5270" d="M38.653 1.501v.95a19.8 19.8 0 002.308 9.511 2.259 2.259 0 004.209-.361 7.256 7.256 0 017.11-5.611 11.953 11.953 0 016.932 1.831c4.2 2.636 11.215 10.645 8.24 25.633a38.561 38.561 0 01-1.3 4.919S62.945 50.46 52.606 58.535a26.889 26.889 0 01-3.287 2.159c-11.2 6.354-24.15 3.941-33.063-5.349a43.83 43.83 0 01-2.572-2.936 2.208 2.208 0 00-3.918 1.169c-.257 2.653-.209 16.891-.209 19.268" fill="none" stroke="#0c380f" stroke-linecap="round" stroke-miterlimit="10" stroke-width="3"/><path data-name="Контур 5271" d="M62.167 20.555a13.98 13.98 0 00-5.532-8.235 6.993 6.993 0 00-3.686-1.075" fill="none" stroke="#0c380f" stroke-linecap="round" stroke-miterlimit="10" stroke-width="3"/><path data-name="Контур 5272" d="M14.445 31.056v8.014a3.982 3.982 0 002 3.227 21.426 21.426 0 005.55 2.617c8.358 2.151 15.429-2.844 16.228-10.691a20.679 20.679 0 00-2.43-11.094 47.144 47.144 0 01-5.418-19.251V1.501" fill="none" stroke="#0c380f" stroke-linecap="round" stroke-miterlimit="10" stroke-width="3"/><path data-name="Контур 5273" d="M1.5 72.846V51.838a11.269 11.269 0 014.876-9.157 3.754 3.754 0 001.563-3.027v-8.6" fill="none" stroke="#0c380f" stroke-linecap="round" stroke-miterlimit="10" stroke-width="3"/><path data-name="Контур 5274" d="M39.916 22.163c-.108-.074-.549-.351-1.115-.709l.008.016a24.2 24.2 0 012.837 13.1 15.622 15.622 0 01-6.578 11.464 15.944 15.944 0 01-9.207 2.829 18.988 18.988 0 01-4.73-.615l-.06-.016a24.582 24.582 0 01-6.552-3.077 9.206 9.206 0 01-1.359-1.118h-.01a22.3 22.3 0 008.706 8.74c19.246 10.179 37.574-17.203 18.06-30.614z" fill="#145a19"/></g></g></g></g></svg>