<svg xmlns="http://www.w3.org/2000/svg" width="73.435" height="73.226"><g data-name="Сгруппировать 12315"><path data-name="Контур 5262" d="M65.394 36.984a35.823 35.823 0 001.022-4.035c2.928-14.752-3.975-22.636-8.11-25.23a11.757 11.757 0 00-6.824-1.8 7.142 7.142 0 00-7 5.522 2.223 2.223 0 01-4.143.355 19.481 19.481 0 01-2.271-9.362v-.935" fill="none" stroke="#fff" stroke-linecap="round" stroke-miterlimit="10" stroke-width="3"/><path data-name="Контур 5263" d="M61.213 20.254a13.762 13.762 0 00-5.445-8.105 6.885 6.885 0 00-3.628-1.058" fill="none" stroke="#fff" stroke-linecap="round" stroke-miterlimit="10" stroke-width="3"/><path data-name="Контур 5264" d="M9.433 71.725c0-2.34-.048-16.354.205-18.966a2.173 2.173 0 013.856-1.151 42.723 42.723 0 002.532 2.889c5.892 6.142 13.578 9.23 21.33 8.7" fill="none" stroke="#fff" stroke-linecap="round" stroke-miterlimit="10" stroke-width="3"/><path data-name="Контур 5265" d="M14.243 30.591v7.889a3.919 3.919 0 001.965 3.177 21.08 21.08 0 005.462 2.576c8.227 2.117 15.187-2.8 15.973-10.523a20.349 20.349 0 00-2.392-10.92 46.408 46.408 0 01-5.332-18.949v-2.34" fill="none" stroke="#fff" stroke-linecap="round" stroke-miterlimit="10" stroke-width="3"/><path data-name="Контур 5266" d="M1.5 71.724V51.046a11.092 11.092 0 014.8-9.014 3.694 3.694 0 001.539-2.979v-8.464" fill="none" stroke="#fff" stroke-linecap="round" stroke-miterlimit="10" stroke-width="3"/><path data-name="Контур 5267" d="M68.167 39.857a14.861 14.861 0 01-2.539 3 24.73 24.73 0 011.9 11.6c-.508 6.708-5.451 11.57-11.775 11.57a11.831 11.831 0 01-11.741-10.872 16.846 16.846 0 013.231-11.2 14.851 14.851 0 01-3.9-4.1 17.683 17.683 0 1024.828 0z" fill="#fff"/><path data-name="Контур 5268" d="M55.752 62.776a8.563 8.563 0 01-8.5-7.869 13.462 13.462 0 014.1-10.711 16.727 16.727 0 004.958-9.509c9.27 9.413 7.994 19.291 7.978 19.4l-.008.079c-.35 4.988-3.94 8.61-8.528 8.61z" fill="#fff"/></g></svg>