<svg xmlns="http://www.w3.org/2000/svg" width="74.294" height="75.279"><path data-name="Контур 4587" d="M72.78 26.794a5.9 5.9 0 010-9.693 5.9 5.9 0 01-1.18-9.693 5.909 5.909 0 00-5.909-5.909h-.084a5.9 5.9 0 00-4.854 2.543 5.9 5.9 0 00-9.866.291 5.985 5.985 0 00-.482-.553 5.906 5.906 0 00-9.122.935 5.9 5.9 0 00-9.658.123 5.9 5.9 0 00-9.671.049 5.9 5.9 0 00-9.866.291 6 6 0 00-.482-.553 11.2 11.2 0 00-7.431 18.793 16.416 16.416 0 01-2.556 15.28 9.246 9.246 0 009.459-15.562 5.891 5.891 0 002.255-4.635 8.159 8.159 0 00-.718-2.67 1.676 1.676 0 012.122-2.205 8.128 8.128 0 002.379.556 5.9 5.9 0 004.853-2.543 5.9 5.9 0 009.715-.049 5.9 5.9 0 009.7-.094 5.9 5.9 0 009.886-.416 5.892 5.892 0 004.64 2.259 13.441 13.441 0 003.494-1.048 1.646 1.646 0 012.192 1.99 14.162 14.162 0 00-.639 2.821 5.9 5.9 0 010 9.693 5.9 5.9 0 010 9.692 9.967 9.967 0 001.157 3.542 1.033 1.033 0 01-1.375 1.385 10.153 10.153 0 00-3.556-1.144h-.01a5.9 5.9 0 00-4.841 2.527 5.9 5.9 0 00-9.687.007 10.7 10.7 0 00-7.921 18.237 5.906 5.906 0 001.19 10.055v.084a2.6 2.6 0 105.2 0v-.263a18.454 18.454 0 012.615-14.9 8.374 8.374 0 00-.856-2.68 1.544 1.544 0 012.012-2.062 8.285 8.285 0 002.608.818 5.9 5.9 0 004.841-2.527 5.9 5.9 0 004.841 2.527h.01a5.9 5.9 0 004.841-2.527 10.706 10.706 0 008.216-17.921 5.9 5.9 0 002.538-4.851z" fill="none" stroke="#fff" stroke-linecap="round" stroke-miterlimit="10" stroke-width="3"/></svg>