<svg xmlns="http://www.w3.org/2000/svg" width="75.977" height="73.486"><g data-name="Сгруппировать 12139" transform="translate(-1766.474 -793.626)" fill="none" stroke="#fff" stroke-miterlimit="10" stroke-width="3"><path data-name="Контур 4690" d="M1825.194 801.008c-2.435 2.91-2.646 6.744-.472 8.562s5.909.933 8.344-1.977 2.646-6.744.472-8.562-5.909-.934-8.344 1.977z"/><path data-name="Контур 4692" d="M1797.179 805.045l.185-.185c1.267-1.259 3.872-3.372 7.1-3.372s5.831 2.113 7.1 3.372" stroke-linecap="round"/><path data-name="Контур 4693" d="M1835.505 796.625a2.776 2.776 0 014.792 1.05 15.627 15.627 0 01-5.307 16.487 13.233 13.233 0 01-7.163 2.634c-4.056.4-10.967-.148-17.738-6.37-.316-.291-.617-.6-.921-.9-.706-.7-2.618-2.385-4.706-2.385s-4 1.683-4.706 2.385c-.3.3-.605.609-.921.9-6.771 6.222-13.683 6.767-17.738 6.37a13.233 13.233 0 01-7.163-2.634 15.627 15.627 0 01-5.307-16.487 2.776 2.776 0 014.793-1.05" stroke-linecap="round"/><ellipse data-name="Эллипс 4" cx="5.132" cy="6.871" rx="5.132" ry="6.871" transform="rotate(-39.91 1989.14 -2037.354)"/><path data-name="Контур 4695" d="M1787.76 816.391s4.589.794 5.623 10.825a17.73 17.73 0 001.62 5.906 14.335 14.335 0 002.087 3.205s-1.39 8.881 1.343 12.555l-.348.423a5.333 5.333 0 00-.976 4.953l3.492 11.352h3.863" stroke-linecap="round"/><path data-name="Контур 4696" d="M1821.163 816.391s-4.589.794-5.623 10.825a17.732 17.732 0 01-1.619 5.906 14.364 14.364 0 01-2.088 3.205s1.39 8.881-1.343 12.555l.348.423a5.333 5.333 0 01.976 4.953l-3.491 11.352h-3.86" stroke-linecap="round"/><path data-name="Контур 4698" d="M1798.433 848.88a8.128 8.128 0 004.476 1.366" stroke-linecap="round"/><path data-name="Контур 4699" d="M1810.493 848.88a8.127 8.127 0 01-4.475 1.366" stroke-linecap="round"/><path data-name="Линия 130" stroke-linecap="round" d="M1804.463 845.064v-9.611"/></g></svg>