<svg data-name="Marke Final &gt;" xmlns="http://www.w3.org/2000/svg" width="207.701" height="85.03"><g data-name="Сгруппировать 11750" fill="#647a84"><g data-name="Сгруппировать 11748"><path data-name="Контур 5936" d="M135.87 68.629h-1.53l-6.873-9.458-2.389 2.107v7.35h-1.248V50.721h1.249v9.309l1.984-1.984 7.019-7.325h1.593l-7.338 7.569z"/><path data-name="Контур 5937" d="M139.311 68.632h-1.212V49.569h1.212z"/><path data-name="Контур 5938" d="M143.6 51.616q0-1.177.77-1.177a.686.686 0 01.595.306 1.507 1.507 0 01.215.871 1.532 1.532 0 01-.215.869.681.681 0 01-.595.319q-.771-.001-.77-1.188zm1.383 17.014h-1.211V55.316h1.211z"/><path data-name="Контур 5939" d="M158.724 68.629v-8.637a4.2 4.2 0 00-.844-2.919 3.41 3.41 0 00-2.621-.914 4.54 4.54 0 00-3.5 1.208 5.684 5.684 0 00-1.107 3.912v7.35h-1.209V55.313h1.029l.233 1.826h.073q1.3-2.083 4.618-2.082 4.532 0 4.532 4.861v8.71z"/><path data-name="Контур 5940" d="M164.068 51.616q0-1.177.771-1.177a.68.68 0 01.593.306 1.506 1.506 0 01.217.871 1.532 1.532 0 01-.217.869.676.676 0 01-.593.319q-.772-.001-.771-1.188zm1.383 17.014h-1.213V55.316h1.213z"/><path data-name="Контур 5941" d="M171.098 62.786l6.8-7.472h1.471l-5.243 5.684 5.7 7.632h-1.459l-5.058-6.725-2.181 1.984v4.743h-1.213V49.569h1.213v9.554l-.086 3.663z"/><path data-name="Контур 5942" d="M187.427 68.874a5.806 5.806 0 01-4.528-1.79 7.191 7.191 0 01-1.622-5.008 7.812 7.812 0 011.568-5.1 5.17 5.17 0 014.227-1.919 4.56 4.56 0 013.711 1.641 6.774 6.774 0 011.36 4.458v.98h-9.592a6.3 6.3 0 001.279 4.189 4.509 4.509 0 003.6 1.444 11.04 11.04 0 002-.159 12.151 12.151 0 002.186-.684v1.1a9.771 9.771 0 01-2.082.667 11.566 11.566 0 01-2.107.181zm-.355-12.74a3.993 3.993 0 00-3.087 1.267 5.991 5.991 0 00-1.36 3.657h8.232a5.793 5.793 0 00-1.005-3.618 3.3 3.3 0 00-2.78-1.306z"/><path data-name="Контур 5943" d="M205.101 68.629v-8.637a4.2 4.2 0 00-.846-2.919 3.4 3.4 0 00-2.621-.914 4.536 4.536 0 00-3.5 1.208 5.684 5.684 0 00-1.107 3.912v7.35h-1.21V55.313h1.03l.233 1.826h.073q1.3-2.083 4.618-2.082 4.532 0 4.532 4.861v8.71z"/></g><g data-name="Сгруппировать 11749"><path data-name="Контур 5944" d="M136.213 44.686l-10.491-25.984h-.154q.156 2.387.154 4.888v21.1h-1.885V16.545h3.041l9.97 24.755h.116l9.97-24.755h2.964v28.141h-1.982V23.359q0-2.231.231-4.619h-.154l-10.529 25.946z"/><path data-name="Контур 5945" d="M157.848 44.686V16.545h1.964v28.141z"/><path data-name="Контур 5946" d="M175.115 44.686h-1.984V18.394h-9.142v-1.849h20.263v1.849h-9.142z"/><path data-name="Контур 5947" d="M200.444 17.912a10.63 10.63 0 00-8.334 3.388q-3.043 3.387-3.041 9.276 0 6.026 2.867 9.355t8.2 3.331a22.173 22.173 0 006.5-.9v1.728a21.188 21.188 0 01-6.967.982 11.853 11.853 0 01-9.336-3.829q-3.408-3.83-3.408-10.7a16.794 16.794 0 011.627-7.565 11.773 11.773 0 014.679-5.053 13.818 13.818 0 017.092-1.779 17.023 17.023 0 017.372 1.539l-.788 1.77a14.3 14.3 0 00-6.463-1.543z"/></g></g><path data-name="Контур 5948" d="M100.781 11.041a15.9 15.9 0 00-1.874-4.695 10.481 10.481 0 00-.774-1.122 1.944 1.944 0 00-.285-.317c-.007-.007-.013-.043-.016-.041v.029l-.009-.007.007-.013-.007.005h-.02a4.276 4.276 0 00-.957-.613 30.308 30.308 0 00-2.865-1.382A36.047 36.047 0 0083.46.127a22.485 22.485 0 00-13.794 2.824 17.1 17.1 0 00-2.962 2.176c-.446.418-.928.8-1.337 1.244l-.663.871-.373.219c-.5.328-.975.7-1.453 1.052a13.75 13.75 0 00-3.349 3.949 12.993 12.993 0 00-2.234 2 9.878 9.878 0 00-1.864 3.2c-.19.17-.373.346-.57.509a9.6 9.6 0 00-1.031 1.256 6.975 6.975 0 00-.921 1.355 9.824 9.824 0 00-.79 1.881 12.236 12.236 0 00-1.505 1.613 11.979 11.979 0 00-1.507-1.622 10.011 10.011 0 00-.787-1.878 6.909 6.909 0 00-.921-1.356 9.737 9.737 0 00-1.032-1.258c-.194-.161-.375-.333-.561-.5a9.908 9.908 0 00-1.862-3.213 12.9 12.9 0 00-2.258-2.027 14.368 14.368 0 00-5.143-5.18 13.7 13.7 0 00-2.209-2.281A20.069 20.069 0 0026.258.748a27.593 27.593 0 00-13.518.294 39.267 39.267 0 00-7.25 2.609 7.872 7.872 0 00-2.1 1.211h.016-.007l.005.005a5.2 5.2 0 00.683.862c.468.539 1.184 1.3 2.109 2.218a91.116 91.116 0 007.895 6.888 148.151 148.151 0 0019.835 12.908c-.453.8-.921 1.606-1.412 2.4-11.626-6.892-19.424-12.679-24-17.091a21.893 21.893 0 01-4.663-5.925 5.021 5.021 0 01-.47-1.687 3.925 3.925 0 01.023-.566c-.007-.005-.022.02-.036.047l.013-.053v-.005a1.461 1.461 0 00-.323.349 10.774 10.774 0 00-.776 1.124 15.979 15.979 0 00-1.869 4.7 18.731 18.731 0 00-.043 7.653 19.106 19.106 0 00.6 2.2 11.184 11.184 0 00.831 2.238c.348.754.7 1.516 1.05 2.283q.688 1.1 1.383 2.22c3.853 6 10.085 11.463 16.955 16.016.41.287.828.564 1.242.846l-.9 1.222-1.838 2.767a41.851 41.851 0 00-5.4 11.3 23.911 23.911 0 00-.712 10.846 18.866 18.866 0 003.336 7.976 21.185 21.185 0 003.953 4.182c.547.4.968.713 1.276.891a1.7 1.7 0 00.466.245h.005v.007-.001h.007l-.005.009-.007.005.023-.009-.029.009a.427.427 0 00.043 0 .531.531 0 00.065.021.39.39 0 00-.113-.02 2.18 2.18 0 00.511.206 15.122 15.122 0 001.541.409 23.552 23.552 0 005.958.435 29.443 29.443 0 008.88-1.844 21.644 21.644 0 009.112-6.644 25.273 25.273 0 002.007-2.777 24.7 24.7 0 002.027 2.831 21.642 21.642 0 009.11 6.6 29.365 29.365 0 008.863 1.824 23.36 23.36 0 005.94-.441 14.115 14.115 0 001.534-.41c.116-.038.185-.066.26-.095.156-.038.26-.07.256-.088h-.005l-.025-.007.023-.013-.038.007a.332.332 0 00-.045-.011.575.575 0 00.086 0l-.048-.018.048.018-.023-.03.029-.009v.053l.007-.007-.009.014h.005a1.637 1.637 0 00.473-.249c.31-.177.731-.489 1.276-.892a21.282 21.282 0 003.955-4.191 18.961 18.961 0 003.331-7.986 23.929 23.929 0 00-.715-10.843 41.855 41.855 0 00-5.4-11.3l-1.839-2.757-.9-1.227c.414-.28.828-.557 1.24-.842 6.87-4.551 13.1-10.013 16.953-16.017q.7-1.115 1.382-2.222l1.052-2.281a11.32 11.32 0 00.824-2.245 19.365 19.365 0 00.6-2.193 18.719 18.719 0 00-.056-7.659zM79.466 76.709c-.9-4.63-3.766-10.7-7.933-17.125-1.358-2.118-2.883-4.27-4.471-6.46.864-.756 1.751-1.5 2.665-2.222 2.154 2.964 4.2 5.843 5.877 8.683 3.956 6.461 5.782 12.919 5.44 17.51a13.071 13.071 0 01-1.369 5.186 11.244 11.244 0 01-.629 1.041 5.028 5.028 0 00.455-1.15 12.258 12.258 0 00-.035-5.463zM58.394 64.915c-.469-.6-.939-1.213-1.41-1.837a22.026 22.026 0 01.874-3.252c.136-.355.323-.7.478-1.045.464.631.917 1.213 1.38 1.826a14.727 14.727 0 00-1.322 4.308zm1.833-3.634c.52.684 1.05 1.4 1.563 2.064 4.689 6.06 8.836 11.251 11.848 14.9a159.75 159.75 0 003.593 4.229q.559.618 1 1.1c.142.149.231.235.292.29a9.159 9.159 0 00-.349-.229c-.374-.244-.792-.518-1.263-.824a76.115 76.115 0 01-4.566-3.281A65.794 65.794 0 0166 73.911a101.1 101.1 0 01-6.906-8.1l-.152-.2a11.431 11.431 0 01.276-1.58 12.785 12.785 0 011.009-2.75zm-.7 11.219q-1.239-1.226-2.491-2.55a17.274 17.274 0 01-.367-4.336c.02-.435.064-.864.116-1.29.511.647 1.021 1.287 1.528 1.91-.013.344-.061.7-.045 1.032a16.588 16.588 0 001.26 5.234zm18.279 11.348a31.432 31.432 0 01-3.045-.446 24.209 24.209 0 01-8.857-3.523 17.723 17.723 0 01-4.211-4.139c-.086-.136-.163-.281-.247-.421a49.018 49.018 0 002.256 1.86 37.28 37.28 0 007.46 4.415 34.144 34.144 0 005.4 1.923 19.4 19.4 0 001.468.335c-.062 0-.149-.002-.223-.004zM2.366 11.827c.915 4.538 4.934 9.93 10.515 14.893 1.414 1.227 2.946 2.423 4.485 3.684q2.473 1.763 4.972 3.548c1.743 1.132 3.543 2.243 5.343 3.375-.063.086-.122.174-.185.262-.564.769-1.123 1.53-1.684 2.3l-2.967-1.987c-.846-.582-1.724-1.118-2.534-1.726l-2.394-1.829c-.787-.611-1.593-1.19-2.344-1.808l-2.162-1.912a45.2 45.2 0 01-3.953-3.863l-.917-.96-.8-1.018-1.563-1.976c-.428-.677-.857-1.351-1.276-2.021l-.613-.977-.473-1.011a17.147 17.147 0 01-1.98-7.318 13.329 13.329 0 01.373-3.68 10.823 10.823 0 00.157 4.024zm26.4 26.6c.065-.091.127-.185.192-.274q1.368.876 2.7 1.792c-.624.883-1.244 1.774-1.874 2.647-.581-.41-1.159-.824-1.751-1.217-.324-.215-.643-.43-.966-.645.567-.77 1.128-1.533 1.698-2.303zm8.115-13.377c.887.5 1.761.987 2.607 1.459l.226.122c-.4.9-.831 1.8-1.3 2.681-.244-.12-.491-.251-.733-.369-.747-.367-1.473-.733-2.188-1.1.17-.323.358-.638.523-.962.305-.602.59-1.215.865-1.831zM34.963 7.117l.932.572.38.53c.159.233.344.45.478.692l.331.76.077.172c-.733-.337-1.46-.65-2.163-.973a55.85 55.85 0 00-8.547-2.586 77.324 77.324 0 00-13.13-1.657c-3.437-.152-5.924-.1-7.546-.021-.745.039-1.287.082-1.677.124l.41-.095c.719-.161 1.76-.409 3.078-.645a55.389 55.389 0 0110.653-1 35.994 35.994 0 0113.555 2.521 23.779 23.779 0 013.169 1.606zm6.454 7.157c.027.082.038.167.061.251a35.112 35.112 0 00-2.356-1.265 11.917 11.917 0 00-.351-1.693c.72.432 1.441.855 2.084 1.331a9.531 9.531 0 01.562 1.376zm6.836 8.778a11.527 11.527 0 01.423 2.466c-.357-.194-.713-.391-1.077-.554-.439-.2-.892-.4-1.339-.606a16.863 16.863 0 00.233-2.664 16.723 16.723 0 011.593 1.2c.06.047.11.106.167.158zm4.716.009c.057-.05.106-.109.165-.159a16.758 16.758 0 011.6-1.2 16.653 16.653 0 00.229 2.666l-1.344.606c-.364.163-.72.36-1.079.555a11.638 11.638 0 01.43-2.468zm6.856-8.78a9.8 9.8 0 01.545-1.34 18.165 18.165 0 011.747-1.143c.122-.079.245-.147.367-.222-.152.59-.319 1.172-.41 1.752-.794.4-1.575.808-2.32 1.244.027-.096.041-.196.071-.291zm6.639-7.279a28.038 28.038 0 018.253-3.159 43.566 43.566 0 0113.245-.663 60.039 60.039 0 019.1 1.577c-.113-.013-.226-.023-.362-.036a52.088 52.088 0 00-3.12-.167 83.756 83.756 0 00-10.635.41 65.986 65.986 0 00-13.573 2.763c-1.134.4-2.26.824-3.376 1.249-.64.3-1.283.595-1.921.891a12.252 12.252 0 011.281-2.2c.368-.24.737-.46 1.108-.665zm-9.04 66.066c.288.613.5 1.244.833 1.8.349.554.692 1.089 1.018 1.609a17.227 17.227 0 005.076 4.467 23.207 23.207 0 005.069 2.059 29.4 29.4 0 006.974 1h.271c-.595.007-1.3 0-2.132-.045a24.938 24.938 0 01-9.714-2.491 20.514 20.514 0 01-8.949-8.906 18.077 18.077 0 01-1.5-4.216c.452.505.9 1.016 1.356 1.5.31.321.616.624.926.937a13.3 13.3 0 00.772 2.286zm-22.143-35.72q1.3.927 2.568 1.916-.8 1.244-1.622 2.466a49.225 49.225 0 00-2.421-1.878c-.05-.036-.1-.068-.154-.106.3-.426.6-.846.887-1.278.25-.37.492-.748.742-1.12zm9.943-16.507a15.113 15.113 0 01-.206 2.955c-.81-.366-1.64-.74-2.476-1.12a19.4 19.4 0 00.518-3.163c.726.425 1.461.85 2.163 1.328zm-3.887 1.292c-1-.448-1.944-.876-2.9-1.306a22.007 22.007 0 00.7-3.39c.95.471 1.865.951 2.756 1.441a18.357 18.357 0 01-.556 3.255zm1.021 1.267l2.5 1.2a20.083 20.083 0 01-.505 1.955c-.151.469-.349.928-.521 1.392q-1.271-.659-2.587-1.337a29.555 29.555 0 001.113-3.21zm3.323 3.527c.168-.568.312-1.143.434-1.722l1.072.514a14.914 14.914 0 011.5.819c0 .192.009.382 0 .572a17.735 17.735 0 01-.394 2.238c-.142.224-.253.464-.373.7-.8-.41-1.6-.8-2.365-1.211l-.464-.238c.197-.56.421-1.107.59-1.672zm10.327-6.076c.7-.477 1.435-.9 2.161-1.322.022.288.03.577.07.864a21.513 21.513 0 00.455 2.3l-2.482 1.118a15 15 0 01-.203-2.961zm7.049-6.592c.005-.285.041-.561.068-.84a69.512 69.512 0 013.679-1.69 72.916 72.916 0 018.355-2.84 111.779 111.779 0 0112.855-2.751c3.376-.527 5.834-.8 7.44-.971.819-.086 1.412-.145 1.8-.19l-.536.12c-.93.237-1.9.478-3.007.76-2.552.674-6.11 1.67-10.146 2.917a184.018 184.018 0 00-20.425 7.528 15.925 15.925 0 01-.082-2.044zM44.365 68.935c-.065.358-.145.7-.215 1.052q-1.22 1.29-2.428 2.487a16.017 16.017 0 00.762-2.265 14.234 14.234 0 00.423-4q.742-.922 1.489-1.881a18.589 18.589 0 01-.031 4.607zM22.381 83.492a5.028 5.028 0 01-.461-1.362 12.481 12.481 0 01.262-5.34c1.034-4.512 4.014-10.439 8.253-16.756 1.353-2.041 2.867-4.119 4.44-6.243a37.207 37.207 0 012.414 2.4 126.231 126.231 0 00-3.073 4.322 113.781 113.781 0 00-9.626 16.3 26.588 26.588 0 00-1.831 5.168 4.845 4.845 0 00-.151 1.872h-.02l-.016-.025a3.14 3.14 0 01-.191-.336zm14.881-32.915c.8.851 1.537 1.733 2.233 2.636q-.825 1.1-1.631 2.188a37.658 37.658 0 00-2.367-2.455l1.765-2.369zm5.139-7.166q1.226 1.274 2.312 2.641-.914 1.32-1.847 2.605a34.033 34.033 0 00-2.224-2.716q.889-1.249 1.759-2.53zm-2.5 1.754q-1.226-1.279-2.559-2.457.849-1.247 1.674-2.523c.907.781 1.781 1.6 2.63 2.439q-.865 1.283-1.744 2.541zm5.229-5.976c.127.12.258.238.387.358a15.28 15.28 0 00.251 4.942c-.1.145-.192.292-.288.437q-1.099-1.367-2.315-2.635a94.216 94.216 0 001.786-2.794c.059-.101.118-.205.179-.307zm11.3-1.543c-.5-.874-.973-1.765-1.416-2.666a38.645 38.645 0 012.958-2.061c.453.907.937 1.8 1.437 2.681l-2.788 1.877c-.066.05-.129.114-.193.17zm-.165 1.846q.871 1.419 1.786 2.8-1.223 1.266-2.315 2.634c-.163-.242-.323-.487-.482-.729a16.257 16.257 0 00.227-4.37c.21-.2.423-.394.633-.591.051.084.099.172.149.256zm-1.593 12.235c-.326-.509-.652-1.014-.969-1.532.077-.142.143-.285.224-.425.249-.441.554-.855.83-1.285a15.672 15.672 0 01-.085 3.242zM42.349 67.248a16.175 16.175 0 01-1.52 6.11 58.356 58.356 0 01-3.736 3.331 38.268 38.268 0 01-7.219 4.551 38.611 38.611 0 01-5.275 2.123c-.634.2-1.132.34-1.468.434l-.082.021h-.152c.065-.032.115-.056.2-.1a30.69 30.69 0 001.322-.744 61.676 61.676 0 004.711-3.112 62.214 62.214 0 006.553-5.487 84.241 84.241 0 006.639-7.463c.004.115.029.227.027.336zm-19.653 16.64l-.025.018zm-.045.027l-.021.005v-.047l.043.013zm2.131-.254c-.538.07-.937.111-1.272.145a18.74 18.74 0 001.143-.271 33.957 33.957 0 005.4-1.928 37.412 37.412 0 007.458-4.419 49.98 49.98 0 002.233-1.84 14.887 14.887 0 01-3.772 4.06 19.111 19.111 0 01-4.585 2.557 26.671 26.671 0 01-6.606 1.695zm17.299-17.816a95.582 95.582 0 01-6.875 8.088 65.6 65.6 0 01-6.336 5.612 76.914 76.914 0 01-4.553 3.281l-1.263.822c-.118.077-.2.129-.271.177h-.023c.063-.059.136-.133.238-.242l1-1.1c.86-.971 2.08-2.408 3.586-4.231 3.01-3.648 7.15-8.841 11.839-14.9.5-.647 1.014-1.346 1.521-2.014a13.468 13.468 0 011.287 4.311c-.05.064-.097.132-.15.196zm-3.369-2.992c-4.175 5.519-8.18 10.812-11.463 15.154l-4.531 5.82a.212.212 0 00-.088.02 6.674 6.674 0 01.308-1.826 29.156 29.156 0 012.034-5.042 125.7 125.7 0 019.974-16 185.125 185.125 0 012.989-4.069 25.998 25.998 0 011.528 1.926 15.835 15.835 0 011.018 1.614c-.59.801-1.189 1.629-1.766 2.403zm1.469-4.467a25.9 25.9 0 00-1.665-2.259q.785-1.04 1.591-2.1a27.26 27.26 0 012.3 3.772c-.471.661-.932 1.283-1.4 1.926a20.054 20.054 0 00-.826-1.339zm.6-5.247c.469-.618.941-1.236 1.416-1.865l.521-.7a28.1 28.1 0 012.143 3.679q-.9 1.336-1.817 2.629a28.3 28.3 0 00-2.263-3.743zm2.706-3.6q.962-1.3 1.91-2.63c.039.052.086.1.124.154-.011.077-.034.151-.047.226a16.567 16.567 0 00.192 5.8c-.021.032-.043.061-.065.093a28.4 28.4 0 00-2.11-3.644zm5.546-15.152a23.688 23.688 0 00.869 2.435c-.344-.326-.69-.647-1.048-.95-.206-.185-.435-.333-.645-.511a10.619 10.619 0 01.817-1.007zm4.3-.523c.013.149.016.3.021.446a11.5 11.5 0 00-.91-1.089c.079-.385.136-.772.185-1.163.212.607.452 1.208.704 1.804zm.756 4.218a9.729 9.729 0 01.283 1.41c-.113.1-.222.208-.337.31-.2.2-.391.418-.588.627a22.776 22.776 0 00.624-2.4c.01.017.01.034.019.051zm-7.631 10.415c.272.425.573.835.821 1.272.082.142.151.288.229.434-.317.514-.641 1.016-.966 1.521a15.535 15.535 0 01-.084-3.227zm1.713-11.924c.509.439.993.908 1.462 1.392q-.443.919-.934 1.817a19.308 19.308 0 01-.735-3.378c.067.06.141.109.207.169zm5.08-.159a19.173 19.173 0 01-.735 3.365 39.09 39.09 0 01-.93-1.81c.468-.482.951-.95 1.459-1.389.066-.058.136-.107.206-.166zm-2.6 7.551c-.265-.407-.547-.8-.835-1.19-.143-.337-.308-.665-.441-1.007-.081-.21-.151-.423-.226-.636.124-.213.258-.418.38-.633.068-.122.129-.245.2-.367.28-.378.579-.742.883-1.1.3.353.595.711.869 1.082.068.125.133.254.2.38.122.217.258.423.383.64-.075.21-.145.423-.224.631-.179.455-.394.894-.588 1.344-.201.283-.408.564-.599.856zm-2.349-1.423q.288.363.559.733c.3.7.6 1.4.93 2.082a25.959 25.959 0 00-1.586 3.3 27.245 27.245 0 01-1.129-3.39 15.661 15.661 0 01.733-1.907c.172-.268.328-.547.495-.818zm.557 7.58c.045-.131.095-.26.142-.389q.836-1.384 1.606-2.826.806 1.508 1.681 2.955a44.832 44.832 0 01-1.76 3.548q-.61-1.083-1.167-2.2c-.154-.368-.323-.73-.5-1.088zm4.08-1.851a25.646 25.646 0 00-1.475-3c.267-.547.5-1.115.745-1.675q.357-.505.736-.993c.158.254.3.518.464.769q.333.726.593 1.478a27.519 27.519 0 01-1.061 3.421zm1.382-5.485a18.296 18.296 0 00-.6-1.134c.24-.276.491-.543.74-.81a15.083 15.083 0 01-.1 2.007zm-2.154-8.354a10.145 10.145 0 01.745 1.007c-.179.151-.373.278-.548.434-.362.3-.71.627-1.055.953a24.222 24.222 0 00.86-2.394zm-5.1 3.238a21.878 21.878 0 00.658 2.625c-.192-.2-.374-.409-.573-.6-.165-.145-.326-.3-.487-.444a8.966 8.966 0 01.244-1.149c.042-.151.113-.287.162-.432zm-.538 2.849c.342.349.676.7 1 1.073-.224.389-.439.783-.633 1.188-.081.125-.165.245-.244.369a14.086 14.086 0 01-.119-2.63zm.267 12.7c.036-.052.07-.108.1-.159-.021.108-.052.213-.072.319a1.004 1.004 0 00-.024-.159zm8.49-14.573c-.057-.272-.09-.548-.168-.819a9.072 9.072 0 00-.366-1q.417.779.853 1.541c-.102.092-.211.182-.315.279zm3.933-6.479q1.333-.788 2.675-1.516a61.73 61.73 0 001.439 2.586c-.889.511-1.778 1.05-2.672 1.6a72.545 72.545 0 01-1.438-2.67zm3.949-2.2c.238-.125.478-.258.715-.382.738-.387 1.453-.77 2.161-1.152.441.806.894 1.609 1.369 2.4-.747.448-1.494.9-2.217 1.321-.194.115-.394.228-.59.342a70.68 70.68 0 01-1.434-2.527zm3.3-3.684a46.646 46.646 0 01-.9-1.84c11.038-6.263 18.836-11.049 24.018-14.245 2.844-1.8 4.838-3.053 6.3-3.973.932-.607 1.491-.987 1.752-1.184-.131.133-.326.337-.6.616a72.787 72.787 0 01-2.166 2.157 98.338 98.338 0 01-7.952 6.788A136.2 136.2 0 0167 27.216c-.172-.311-.358-.618-.525-.931zm-1.274.59c.17.333.362.658.538.989-.74.375-1.48.751-2.2 1.1-.238.116-.486.245-.727.366a47.417 47.417 0 01-1.261-2.613l.161-.088c.928-.518 1.786-1.007 2.672-1.507.263.591.537 1.177.824 1.754zm2.1.874a139.412 139.412 0 0023.597-16.03c2.57-2.2 4.315-3.91 5.417-5.062a11.66 11.66 0 001.509-1.751.372.372 0 00.014.077 3.209 3.209 0 01-.194.973 9.8 9.8 0 01-1.482 2.706 45.354 45.354 0 01-7.547 7.6 168.843 168.843 0 01-19.94 13.824 92.558 92.558 0 01-1.369-2.335zM96.853 5.431L94.23 7.053c-2.412 1.473-5.456 3.331-8.97 5.474-5.983 3.6-13.3 7.8-19.938 11.368a31.807 31.807 0 01-1.177-3.017A2784.188 2784.188 0 0188.978 9.111c3.043-1.43 5.175-2.428 6.739-3.163.606-.287 1.045-.5 1.385-.668zm-32.724 19.11c-.948.507-1.881 1-2.79 1.473l-.086.045a29.215 29.215 0 01-1.166-3.232l2.9-1.39a32.13 32.13 0 001.142 3.104zm-3.806 2.842c.378.873.772 1.738 1.206 2.587-.891.453-1.778.934-2.668 1.432a41.28 41.28 0 01-1.15-2.593 381.02 381.02 0 002.612-1.426zm-2.722 4.732a38.387 38.387 0 00-3 1.991c-.09-.2-.181-.391-.265-.588a10.507 10.507 0 00-.609-2.57c.779-.409 1.568-.808 2.331-1.238.136-.072.262-.143.4-.217.346.888.733 1.76 1.144 2.622zm-6.06.263c-.036-.03-.068-.066-.1-.1.043-.029.084-.063.127-.091-.012.066-.016.129-.027.192zm-.855.536c.22.183.412.391.616.588-.05.206-.086.416-.143.62a22.182 22.182 0 01-.552 1.611 24.14 24.14 0 01-.548-1.607c-.059-.215-.1-.434-.151-.65.176-.158.337-.33.521-.48.059-.047.127-.086.186-.133.023.019.05.034.072.052zm-.894-.659c-.041.032-.077.073-.118.106-.013-.073-.016-.147-.027-.222.052.036.1.077.151.113zm-1.2-.2c.047.378.1.751.176 1.122a12.253 12.253 0 00-.9 1c.005-.106.014-.211.021-.317.25-.593.492-1.193.701-1.802zm-2.835 6.363c-.039-.036-.081-.068-.12-.1l.231-.4c-.052.162-.071.333-.112.503zm-3.7 11.145c.025.034.045.072.07.106q-.973 1.325-1.941 2.62a34.251 34.251 0 00-2.213-2.673q.968-1.306 1.937-2.648a35.08 35.08 0 012.144 2.598zm-19.444 34.3l.014.052a.278.278 0 00-.039-.061zm3.888-.251a23.893 23.893 0 009.02-3.453 18.157 18.157 0 004.356-4.195c.333-.505.643-1.034.939-1.573.968-.878 1.942-1.8 2.924-2.779a10.367 10.367 0 01-.423 1.285c-.265.6-.459 1.218-.769 1.767-.331.547-.649 1.073-.96 1.584a16.484 16.484 0 01-4.894 4.428 22.4 22.4 0 01-4.976 2.068 29.021 29.021 0 01-5.908.977 27.6 27.6 0 00.688-.106zm16.3-18.7c-.047-.339-.084-.681-.159-1.012a13.914 13.914 0 00-1.161-3.262c.466-.615.921-1.2 1.387-1.835.154.346.337.681.471 1.032a19.532 19.532 0 01.853 3.247 174.41 174.41 0 01-1.395 1.833zm1.373-5.349c-.19-.552-.446-1.091-.681-1.634.622-.853 1.24-1.743 1.858-2.629a25.043 25.043 0 011.005 2.777c-.013.652-.005 1.3.027 1.948q-.769 1.11-1.548 2.177a24.593 24.593 0 00-.665-2.635zm3.431-3.586a26.354 26.354 0 01.692-3.971c.011-.043.025-.086.038-.131a21.82 21.82 0 011.167 3.331c-.147.249-.294.5-.443.747-.294.48-.6.941-.9 1.41a21.323 21.323 0 01-.558-1.382zm2.217.677c.111.6.2 1.2.258 1.8a18.561 18.561 0 00.039 2.605c-.3-.5-.622-.987-.9-1.505-.2-.362-.382-.735-.563-1.107.388-.588.78-1.179 1.162-1.789zm1.254 4.449a18.414 18.414 0 00.047-2.652 19.55 19.55 0 01.235-1.675q.575.892 1.168 1.756a26.89 26.89 0 01-.518 1.016c-.294.54-.627 1.045-.936 1.56zm.957-5.153c-.122-.2-.244-.407-.366-.607a21.735 21.735 0 011.263-3.587c.011.045.027.09.039.136a26.155 26.155 0 01.692 3.958q-.293.82-.641 1.613c-.334-.498-.669-.994-.991-1.509zm3.514-2.867a16.5 16.5 0 00.194-5.795c-.011-.081-.036-.158-.048-.238.038-.052.084-.1.122-.152q.949 1.333 1.908 2.63a28.559 28.559 0 00-2.118 3.636.51.51 0 01-.062-.077zm.957-7.038q1.089-1.368 2.313-2.641.871 1.279 1.758 2.53a33.669 33.669 0 00-2.227 2.715q-.935-1.284-1.848-2.6zm3.061-3.418a52.786 52.786 0 012.634-2.437q.822 1.277 1.672 2.521-1.339 1.175-2.562 2.455-.882-1.259-1.744-2.539zm1.889-3.566q-1.363 1.166-2.647 2.429a89.555 89.555 0 01-1.6-2.51c-.093-.158-.185-.321-.28-.48.109-.095.213-.2.324-.294q1.287-.9 2.607-1.819c.487.835.984 1.665 1.493 2.482.038.061.079.118.116.179zm1.184-.923c-.527-.839-1.041-1.69-1.543-2.544.887-.568 1.767-1.131 2.657-1.672.475.781.955 1.559 1.453 2.326q-1.3.917-2.564 1.9zm2.374-4.99l.6-.369c.736-.457 1.453-.908 2.161-1.356.446.731.9 1.457 1.369 2.175q-1.36.874-2.713 1.794c-.486-.747-.954-1.496-1.416-2.248zm4-2.514C80.337 23.406 88 17.539 92.548 13.101a24 24 0 004.763-5.924 4.351 4.351 0 00.573-1.964c.013.054.022.084.034.151a5.2 5.2 0 01.029 1.417 12.179 12.179 0 01-1.951 4.942 38.211 38.211 0 01-5.363 6.306 83.35 83.35 0 01-8.167 6.739c-1.523 1.165-3.168 2.283-4.867 3.415-1.668 1.167-3.453 2.27-5.261 3.4-.64.4-1.29.808-1.939 1.217-.475-.724-.934-1.446-1.387-2.173zm6.883-18.961c5.048-1.815 9.2-3.1 12.461-4.075s5.639-1.613 7.193-2.041c.862-.237 1.446-.4 1.817-.507-.158.066-.342.145-.577.249L93.976 6.56l-9.549 4.383c-6.223 2.865-13.711 6.316-20.467 9.377a21.14 21.14 0 01-.751-3.433c4.635-2.241 8.946-3.83 12.686-5.219zm-13.1 9.173l-2.9 1.306a18.41 18.41 0 01-.561-3.261q1.4-.763 2.759-1.446a21.923 21.923 0 00.705 3.396zm-3.914 2.564a30.586 30.586 0 001.134 3.288l-2.594 1.337c-.185-.493-.392-.978-.552-1.476-.2-.645-.364-1.3-.5-1.946zm-3.338 3.51c.179.6.414 1.175.627 1.761l-.536.278c-.74.4-1.511.774-2.283 1.161-.133-.265-.26-.532-.419-.787a18.077 18.077 0 01-.391-2.222c-.009-.19 0-.378 0-.566a14.625 14.625 0 011.491-.817c.355-.168.722-.344 1.08-.516.119.576.26 1.146.427 1.709zm-3.89 2.312a10.411 10.411 0 01.059 1.77c-.366.208-.722.439-1.077.676a16.225 16.225 0 00-1.118-.747 10.089 10.089 0 01.059-1.7 9.554 9.554 0 011.041-1.179 9.479 9.479 0 011.032 1.18zm-6.528.351c.79.439 1.6.853 2.4 1.279a10.445 10.445 0 00-.638 2.656c-.084.194-.174.387-.263.581q-1.462-1.07-3-1.993c.423-.887.817-1.786 1.174-2.7zm1.088 5.39a50.03 50.03 0 01-1.4 2.639c-.091-.073-.174-.156-.267-.228l-2.72-1.8c.5-.878.982-1.767 1.433-2.67a39.195 39.195 0 012.95 2.059zm-4.838 1.4q1.29.884 2.543 1.747c.138.109.262.235.4.349-.1.168-.2.339-.3.505-.523.849-1.063 1.686-1.607 2.518a51.71 51.71 0 00-2.639-2.43l-.016-.014c.038-.059.077-.116.115-.176q.763-1.233 1.5-2.499zm-8.379 4.481q1.285.93 2.51 1.937-.941 1.371-1.894 2.716-1.274-1.059-2.611-2.05.968-1.312 1.921-2.654zm3.621 2.915q1.333 1.169 2.55 2.437-.957 1.344-1.915 2.663a44.21 44.21 0 00-2.539-2.41q.953-1.332 1.9-2.689zm-.068 6.058q-.9 1.226-1.776 2.432a62.576 62.576 0 00-2.627-2.272l1.853-2.546a49.945 49.945 0 012.55 2.386zm-5.068 1.081q1.373 1.086 2.663 2.225c-1.584 2.186-3.105 4.333-4.46 6.449-4.162 6.429-7.028 12.5-7.92 17.127a12.249 12.249 0 00-.032 5.458 5.1 5.1 0 00.419 1.082 11.048 11.048 0 01-.588-.98 13.02 13.02 0 01-1.374-5.173c-.346-4.585 1.468-11.043 5.422-17.5 1.678-2.844 3.72-5.724 5.87-8.688zm-6.573 33.074h-.073q.755-.013 1.724-.075a25.307 25.307 0 009.556-2.546 15.874 15.874 0 008.1-9.4c.125-.385.228-.776.331-1.167.31-.315.618-.62.932-.944.443-.469.882-.968 1.322-1.459-.106.453-.2.916-.335 1.349a14.584 14.584 0 01-.762 2.019l-.435.951c-.181.3-.358.595-.536.885-.367.575-.668 1.174-1.066 1.692s-.808 1.02-1.192 1.505a20.567 20.567 0 01-10.453 6.335 26.242 26.242 0 01-7.112.856zm20-14.8a17.721 17.721 0 00.3-3.587 18.6 18.6 0 00-.172-2.107c.489-.64.978-1.283 1.464-1.948a29.327 29.327 0 00.731 4.134c-.025.323-.07.634-.111.95a75.279 75.279 0 01-2.212 2.561zm3.143-4.723a20.166 20.166 0 00-.226-4.257c-.02-.143-.054-.285-.079-.428.081-.115.161-.224.242-.34.1.192.2.389.3.575a37.672 37.672 0 001.688 2.756l-.009.075q-.844 1.239-1.745 2.406a23.6 23.6 0 01-.171-.784zm4.876-4.446c.091-.165.174-.34.263-.509.079.115.161.224.242.337-.022.118-.048.238-.068.357a21.332 21.332 0 00-.2 4.413c-.048.219-.1.435-.151.652q-.93-1.193-1.794-2.467a38.495 38.495 0 001.708-2.78zm3.319 9c.009.041.02.077.029.118a74.037 74.037 0 01-2.222-2.571c-.032-.256-.052-.511-.075-.767a29.369 29.369 0 00.769-4.132c.473.636.951 1.254 1.428 1.867a19.629 19.629 0 00.07 5.493zm-1.371-8.829c.047-.785.05-1.573.03-2.363a25.788 25.788 0 01.951-2.541c.618.885 1.233 1.772 1.855 2.623-.238.548-.5 1.089-.69 1.647a20.769 20.769 0 00-.672 2.668q-.742-.991-1.475-2.026zm1.466-5.954a28.481 28.481 0 012.147-3.673c.176.235.351.473.525.706.473.625.943 1.242 1.41 1.858a28.323 28.323 0 00-2.268 3.731q-.913-1.283-1.815-2.614zm2.747-4.571c.023-.032.043-.068.066-.1a34.57 34.57 0 012.152-2.6q.968 1.339 1.935 2.647a34.659 34.659 0 00-2.217 2.67q-.968-1.286-1.937-2.609zm2.96-3.462q1.22-1.266 2.553-2.437.946 1.36 1.9 2.688a44.21 44.21 0 00-2.539 2.41q-.959-1.309-1.915-2.653zm3.663-3.413q1.223-1.005 2.509-1.935l.077-.052q.949 1.341 1.917 2.654-1.336.986-2.611 2.048-.953-1.34-1.893-2.708zm1.7-2.942a51.42 51.42 0 00-2.428 1.88q-.822-1.218-1.618-2.464 1.269-.986 2.57-1.915c.245.371.486.747.736 1.115.29.434.593.855.889 1.283-.046.042-.096.072-.146.108zm.538-2.174c-.269-.392-.527-.792-.792-1.188q1.341-.925 2.7-1.81.822 1.223 1.665 2.428-1.36.865-2.711 1.788c-.283-.401-.578-.798-.86-1.211zm3.166-3.815c.645-.416 1.292-.831 1.939-1.242 1.808-1.154 3.587-2.285 5.254-3.487 1.692-1.168 3.327-2.324 4.845-3.53a78.576 78.576 0 008.083-7.019 36.659 36.659 0 005.22-6.61 11.779 11.779 0 001.727-5.184 4.621 4.621 0 00-.161-1.453c-.007-.023-.013-.03-.02-.052l.016.032a6.776 6.776 0 01.463 1.319 10.205 10.205 0 01-.152 5.087c-1.064 4.326-5.132 9.461-10.723 14.244-1.419 1.181-2.951 2.337-4.487 3.557q-2.467 1.715-4.965 3.448c-1.74 1.106-3.541 2.2-5.352 3.329q-.857-1.211-1.684-2.431zM66.502 9.486a52.6 52.6 0 018.379-2.743 71.629 71.629 0 0113.036-1.806c3.421-.172 5.9-.125 7.517-.077l1.34.043h-.075c-.727.047-1.785.134-3.1.271-2.634.278-6.316.762-10.488 1.552a86.017 86.017 0 00-19.9 6.019 11.2 11.2 0 01.469-1.858c.942-.505 1.901-.946 2.822-1.401zm-4.478 4.492c0 .073-.016.147-.014.22a16.65 16.65 0 00.039 2.605c-.941.437-1.849.882-2.736 1.335a12.166 12.166 0 01.222-2.682 34.675 34.675 0 012.489-1.478zm-3.917 4.772c-.039.02-.084.041-.124.063-.627.346-1.261.693-1.885 1.063a10.255 10.255 0 01.541-2.27 8.192 8.192 0 011.131-.93c.167-.129.34-.229.511-.353a13.9 13.9 0 00-.174 2.427zm-7.492 8.042c-.1-.082-.21-.161-.315-.24.09-.2.21-.373.314-.561.1.188.224.369.314.564-.107.079-.211.156-.313.237zm-5.481-6.927c-.625-.371-1.261-.72-1.89-1.07l-.124-.063a14.011 14.011 0 00-.156-2.406c.159.115.34.217.5.333a8.33 8.33 0 011.138.941 10.3 10.3 0 01.532 2.264zm-3.211-1.745q-1.384-.7-2.731-1.335a16.637 16.637 0 00.041-2.587c0-.066-.018-.129-.023-.2q1.306.707 2.505 1.484a12.3 12.3 0 01.208 2.637zm-4.2-6.949c.084.543.226 1.07.333 1.595a77.76 77.76 0 00-3.448-1.488 77.278 77.278 0 00-8.454-2.72 121.461 121.461 0 00-12.916-2.645 133.297 133.297 0 00-7.46-.932 48.306 48.306 0 00-1.493-.113c.081 0 .149 0 .238-.007.96-.014 1.964-.032 3.112-.05a92.016 92.016 0 0110.583.561 63.722 63.722 0 0113.417 2.906c1.113.41 2.213.851 3.3 1.29.9.452 1.8.873 2.673 1.335.039.088.081.176.113.267zM4.512 5.006c.955.111 1.946.226 3.086.355 2.625.324 6.3.837 10.45 1.656 6.307 1.24 13.889 3.268 20.115 6.415a4.07 4.07 0 01.021.822 15.6 15.6 0 01-.086 2.021c-4.652-2.1-8.932-3.6-12.652-4.929-5.085-1.751-9.25-3.007-12.516-3.969s-5.652-1.6-7.212-2c-.794-.2-1.373-.346-1.754-.428.154.016.331.036.548.057zm-.048.19c.925.258 1.881.529 2.982.837 2.537.72 6.082 1.745 10.1 3.021a166.008 166.008 0 0120.479 7.841 21.233 21.233 0 01-.751 3.408 2726.774 2726.774 0 01-24.941-11.4C9.28 7.491 7.14 6.503 5.572 5.78c-.8-.367-1.356-.613-1.711-.76.167.051.357.107.603.176zm-.082.19l2.775 1.341c2.557 1.208 5.777 2.727 9.5 4.481a3510.077 3510.077 0 0120.431 9.66 31.836 31.836 0 01-1.149 2.949c-11.17-5.972-19-10.681-24.194-13.837L5.429 6.063c-.561-.351-.971-.6-1.3-.8zm33.871 16.041q1.484.71 2.892 1.39a28.753 28.753 0 01-1.136 3.157l-.154-.079c-.944-.495-1.817-.964-2.718-1.442a31.505 31.505 0 001.116-3.026zm2.688 5.876l2.6 1.421q-.538 1.349-1.181 2.67a72.09 72.09 0 00-2.663-1.432 44.18 44.18 0 001.244-2.661zm1.061 4.856a59.21 59.21 0 01-1.444 2.665c-.9-.538-1.79-1.068-2.682-1.573a62.83 62.83 0 001.455-2.607q1.343.722 2.671 1.513zm-1.876 3.424q-.756 1.283-1.545 2.544l-.007.013q-1.263-.978-2.561-1.9c.495-.762.973-1.536 1.444-2.312.893.54 1.778 1.094 2.669 1.653zm-5.336-.192q-1.355-.922-2.713-1.794a86.26 86.26 0 001.349-2.138c.693.432 1.39.867 2.061 1.281.229.143.473.285.706.428-.459.743-.923 1.486-1.404 2.221zm-.731 1.1c-.263.394-.523.794-.79 1.186-.283.412-.579.81-.864 1.22q-1.352-.919-2.711-1.788.847-1.2 1.666-2.426 1.357.879 2.698 1.803zm-6.768 5.9c.6.391 1.183.8 1.77 1.215l-1.915 2.638q-1.373-.951-2.754-1.881l.357-.478c.523-.708 1.048-1.423 1.571-2.132.324.205.646.422.97.631zm2.974 2.07q1.349.992 2.636 2.055l-1.856 2.611q-1.33-1.054-2.725-2.045zm.116 5.596a105.044 105.044 0 00-5.838 8.97c-3.87 6.66-5.528 13.394-4.937 18.116a12.674 12.674 0 001.727 5.247c.151.235.29.426.423.606a11.118 11.118 0 01-.482-.57 16.367 16.367 0 01-2.693-4.776c-1.67-4.369-1.45-11.258 1.912-18.121a60.826 60.826 0 017.121-11.5q1.414.988 2.767 2.028zm6.187 31.732a21.2 21.2 0 009.262-9 19.2 19.2 0 001.869-5.419l.007-.009c.229.726.482 1.439.763 2.136-.174.532-.348 1.066-.53 1.579a32.635 32.635 0 01-1.724 4.035l-1.136 1.718a13.918 13.918 0 01-1.298 1.498 16.677 16.677 0 01-5.854 3.921 23.293 23.293 0 01-5.533 1.525 32.9 32.9 0 01-4.949.373 24.419 24.419 0 009.124-2.357zm11.941-15.4c.387-.473.772-.944 1.149-1.437q-.288 1.5-.693 2.917a26.611 26.611 0 01-.455-1.477zm2.089-1.856a35.842 35.842 0 001.238 4.5 27.612 27.612 0 01-1.227 2.718 27.508 27.508 0 01-1.238-2.767 36.922 36.922 0 001.228-4.448zm.894.33c.4.53.814 1.039 1.229 1.545q-.223.788-.486 1.554a32.168 32.168 0 01-.742-3.097zm2 2.6a18.326 18.326 0 00.65 2.455 15.809 15.809 0 00.839 2.062l.475.969c.192.3.38.6.568.894.385.581.708 1.183 1.125 1.706l1.249 1.514a21.353 21.353 0 0010.718 6.334 25.326 25.326 0 004.881.762 29.807 29.807 0 01-9.875-1.593 16.681 16.681 0 01-9.655-8.56 51.038 51.038 0 01-1.733-4.447c.28-.685.531-1.386.761-2.097zm7.126 7.314a15.477 15.477 0 004.421 4.874 19.6 19.6 0 004.677 2.559 25.37 25.37 0 005.779 1.541c-.26-.02-.532-.039-.819-.064a25.684 25.684 0 01-9.4-2.634 15.315 15.315 0 01-7.773-9.239c-.025-.079-.041-.161-.065-.242q1.513 1.505 3 2.849c.063.113.118.24.183.355zm-1.825-16.993a27.279 27.279 0 012.306-3.763l1.588 2.093a25.413 25.413 0 00-1.675 2.256c-.306.444-.543.908-.8 1.367-.475-.652-.94-1.283-1.419-1.953zm2.919-4.58c.7-.9 1.439-1.783 2.236-2.634q.89 1.193 1.761 2.365a38.438 38.438 0 00-2.371 2.449q-.803-1.083-1.626-2.18zm2.95-3.377a45.232 45.232 0 012.552-2.383q.93 1.282 1.847 2.541-1.352 1.1-2.627 2.268l-1.772-2.426zm14.819 33.188c.134-.181.276-.376.426-.613a12.664 12.664 0 001.724-5.254c.584-4.721-1.079-11.459-4.95-18.121a104.863 104.863 0 00-5.849-8.977q1.355-1.04 2.767-2.025a60.978 60.978 0 017.121 11.502c3.367 6.861 3.6 13.756 1.93 18.132a16.329 16.329 0 01-2.69 4.788c-.173.219-.333.4-.479.568zm-9.312-33.9l-1.853-2.6q1.287-1.062 2.638-2.055l1.942 2.618q-1.399.986-2.732 2.035zm1.987-5.514c.586-.409 1.172-.822 1.769-1.213.326-.211.649-.428.975-.641.521.708 1.046 1.421 1.568 2.127l.36.482c-.919.624-1.842 1.249-2.758 1.883-.643-.878-1.275-1.753-1.918-2.64zm1.025-2.231c-.593.394-1.175.808-1.76 1.218-.629-.871-1.247-1.761-1.871-2.645q1.339-.914 2.7-1.792c.065.09.127.181.19.271l1.7 2.306zm.536-3.775c-.063-.086-.124-.176-.186-.263 1.8-1.134 3.594-2.243 5.338-3.376q2.5-1.779 4.972-3.55c1.539-1.26 3.069-2.457 4.485-3.686 5.576-4.963 9.6-10.361 10.5-14.9a10.758 10.758 0 00.151-4.033 13.316 13.316 0 01.382 3.684 17.128 17.128 0 01-1.973 7.32l-.471 1.009-.611.978-1.276 2.021q-.771.978-1.561 1.973l-.8 1.018-.912.962a45.258 45.258 0 01-3.95 3.875l-2.159 1.91c-.753.624-1.557 1.2-2.346 1.812-1.571 1.222-3.184 2.451-4.926 3.555l-2.973 1.989c-.56-.766-1.12-1.529-1.68-2.298zM67.374 5.463a19.029 19.029 0 017.721-4.252 26.529 26.529 0 0113.294.136 41.34 41.34 0 017.212 2.535c.708.324 1.217.573 1.577.744a17.074 17.074 0 00-.432-.134 37.62 37.62 0 00-3.062-.762 52.7 52.7 0 00-10.71-1.156 37.156 37.156 0 00-13.8 2.387c-.848.4-1.713.76-2.537 1.2.244-.245.483-.479.737-.698zm-3.85 3.544l-.154.324c-.174.38-.358.754-.529 1.131l-.056.027c-.466.278-.935.536-1.4.8a13.318 13.318 0 012.139-2.282zm-4.8 5.365c-.109.342-.217.684-.3 1.037-.335.217-.693.418-1.016.643a8.825 8.825 0 01.679-.986c.208-.246.425-.468.642-.694zm-4.19 5.525c.158-.2.294-.407.437-.613-.073.367-.156.733-.194 1.106-.009.1 0 .21-.011.315a40.95 40.95 0 00-1.217.815c.056-.115.09-.237.151-.349a6.336 6.336 0 01.834-1.274zm-2.815 4.464a13.053 13.053 0 00-.154 1.374 12.016 12.016 0 00-.394-.676c.168-.242.358-.469.548-.699zm-1.661.7c-.143.22-.274.448-.4.679a13.723 13.723 0 00-.156-1.383c.194.225.379.456.556.7zm-3.365-5.17a6.264 6.264 0 01.831 1.276c.059.113.095.233.149.346-.4-.28-.8-.552-1.208-.812-.007-.1 0-.2-.009-.306a11.1 11.1 0 00-.194-1.107c.142.198.277.406.431.6zm-3.553-4.838a8.572 8.572 0 01.683.994c-.335-.242-.677-.443-1.018-.665a10.955 10.955 0 00-.287-1.007c.211.221.433.442.621.675zm-5.315-5.974a13.314 13.314 0 012.01 2.186c-.095-.052-.188-.111-.283-.161-.387-.24-.779-.459-1.174-.663a12.754 12.754 0 00-.674-1.451c.04.026.077.057.121.086zM7.338 3.127A37.29 37.29 0 0117.799.545 21.7 21.7 0 0131.213 3.46a16.061 16.061 0 012.813 2.161c.194.188.4.371.595.555a29.357 29.357 0 00-8.015-2.8 45.817 45.817 0 00-13.387-.512 53.881 53.881 0 00-7.526 1.263c-.762.188-1.312.346-1.692.468l.437-.206c.669-.315 1.643-.77 2.9-1.262zm3.143 8.42a82.165 82.165 0 01-5.435-5.019C4.27 5.74 3.811 5.245 3.582 5.017c.151.111.383.274.711.5.794.52 1.623 1.063 2.575 1.683a418.08 418.08 0 008.9 5.542c5.992 3.654 13.33 7.92 19.911 11.635-.3.641-.606 1.279-.935 1.91-.161.3-.344.6-.512.908a126.664 126.664 0 01-23.751-15.648zm24.7 16.88c.724.391 1.451.781 2.154 1.147.238.125.482.258.72.385-.468.86-.95 1.717-1.46 2.562-.233-.134-.471-.267-.7-.4-.722-.414-1.425-.822-2.12-1.229a79.26 79.26 0 001.406-2.465zM3.321 5.983A7.549 7.549 0 004.6 8.827a39.715 39.715 0 007.481 7.773c5.686 4.838 13.312 9.83 20.1 14.079-.446.71-.894 1.416-1.36 2.114-.649-.409-1.3-.819-1.937-1.217-1.81-1.127-3.593-2.225-5.264-3.4-1.7-1.132-3.34-2.249-4.867-3.412a83.914 83.914 0 01-8.174-6.736 38.374 38.374 0 01-5.37-6.3 12.155 12.155 0 01-1.962-4.953 5.283 5.283 0 01.027-1.425l.018-.082a2.347 2.347 0 00.029.715zm1.419 6a36.841 36.841 0 005.229 6.608 78.027 78.027 0 008.087 7.012c1.516 1.208 3.152 2.362 4.845 3.53 1.665 1.2 3.448 2.331 5.256 3.485q.973.618 1.944 1.245-.831 1.22-1.684 2.428c-1.81-1.132-3.611-2.222-5.351-3.326q-2.485-1.738-4.964-3.45c-1.536-1.217-3.068-2.372-4.492-3.555-5.592-4.779-9.669-9.911-10.737-14.242a10.2 10.2 0 01-.158-5.1 6.566 6.566 0 01.459-1.317l.007-.014-.016.039a4.7 4.7 0 00-.159 1.46A11.817 11.817 0 004.74 11.98zm17.186 30.685c-6.788-4.508-12.953-9.8-16.817-15.553q-.7-1.072-1.4-2.132l-1.073-2.182a11.008 11.008 0 01-.858-2.15 18.976 18.976 0 01-.643-2.1A18.732 18.732 0 01.9 11.134a15 15 0 011.005-3.413 12.977 12.977 0 00-.577 3.766c-.181 4.442 2.4 10.583 7.322 15.928 4.3 4.9 10.185 9.362 16.4 13.505-.516.7-1.034 1.412-1.55 2.114l-.351.48c-.403-.287-.818-.565-1.223-.846zm-4.5 35.624a18.724 18.724 0 01-2.9-7.8 23.48 23.48 0 01.98-10.377 42.24 42.24 0 015.43-10.888l1.819-2.684.9-1.213q1.4.938 2.779 1.876c-.28.387-.57.781-.848 1.166a151.348 151.348 0 00-3.5 5.3 50.727 50.727 0 00-2.729 5.386c-3.3 7.119-3.29 14.353-1.333 18.781a15.582 15.582 0 003.044 4.743c.057.063.1.1.158.158l-.177-.154a22.875 22.875 0 01-3.626-4.294zm30.467-2.32a21.072 21.072 0 01-8.642 6.565 29.692 29.692 0 01-8.655 2.041 25.164 25.164 0 01-5.892-.2c-.679-.115-1.2-.22-1.552-.308-.09-.021-.138-.034-.206-.052.185.039.437.084.771.131a28.134 28.134 0 003.091.244 29.5 29.5 0 0010.423-1.478 17.3 17.3 0 0010.024-8.68 54.264 54.264 0 001.6-3.824c.364.815.754 1.613 1.186 2.374a24.868 24.868 0 01-2.151 3.186zm28.621 8.388a24.964 24.964 0 01-5.876.2 29.425 29.425 0 01-8.63-2.021 20.986 20.986 0 01-8.641-6.512 24.529 24.529 0 01-2.2-3.236c.428-.756.817-1.543 1.179-2.351.106.281.208.575.314.849a34.5 34.5 0 001.865 4.08l1.208 1.747a15.3 15.3 0 001.367 1.511 17.415 17.415 0 006.049 3.93 24.03 24.03 0 005.625 1.5 33.314 33.314 0 007.479.258c.486-.041.867-.084 1.2-.127-.272.053-.58.11-.942.171zm1.869-.5l-.294-.079c-.333-.093-.831-.228-1.464-.432a39.582 39.582 0 01-12.495-6.66 58.543 58.543 0 01-3.745-3.338 16.044 16.044 0 01-1.147-3.252 13.579 13.579 0 01-.367-3.191 87.481 87.481 0 006.642 7.445 61.765 61.765 0 006.568 5.49 59.855 59.855 0 004.723 3.116c.572.335 1.018.584 1.322.745.136.07.233.118.312.154zm.211.063l-.022-.018zm-.039-.056c-.941-1.208-2.491-3.19-4.578-5.865a1477.103 1477.103 0 01-11.47-15.141c-.586-.788-1.2-1.631-1.8-2.446.323-.554.659-1.091 1.023-1.593.471-.663.994-1.3 1.537-1.928a183.238 183.238 0 013 4.082 126.17 126.17 0 019.986 16 29.149 29.149 0 012.039 5.042 6.639 6.639 0 01.312 1.86.156.156 0 00-.052-.014zm.056.072l.014-.052h.007-.005a4.626 4.626 0 00-.143-1.9 26.706 26.706 0 00-1.838-5.168 113.352 113.352 0 00-9.635-16.3 128.457 128.457 0 00-3.089-4.34 39.34 39.34 0 012.419-2.392c1.577 2.127 3.093 4.207 4.451 6.25 4.24 6.315 7.225 12.242 8.262 16.758a12.625 12.625 0 01.269 5.347 5.045 5.045 0 01-.64 1.7l-.009.014c-.04.044-.063.076-.066.08zm-.152-37.394l1.817 2.682a42.31 42.31 0 015.444 10.882 23.51 23.51 0 01.989 10.382 18.732 18.732 0 01-2.9 7.809 22.788 22.788 0 01-3.628 4.312c-.07.061-.12.106-.186.161.057-.059.108-.1.167-.167a15.614 15.614 0 003.043-4.754c1.953-4.433 1.957-11.669-1.342-18.786a52.314 52.314 0 00-2.733-5.385 146.643 146.643 0 00-3.507-5.3c-.278-.387-.57-.785-.851-1.174.921-.627 1.851-1.249 2.781-1.874zm21.612-28a18.226 18.226 0 01-.641 2.1 10.765 10.765 0 01-.857 2.148c-.353.724-.711 1.451-1.068 2.186l-1.394 2.131c-3.866 5.754-10.03 11.047-16.819 15.554-.407.283-.822.564-1.235.846l-.348-.473c-.516-.7-1.037-1.414-1.554-2.12 6.22-4.139 12.108-8.6 16.4-13.5 4.924-5.351 7.494-11.491 7.313-15.931a13.033 13.033 0 00-.582-3.761 15.01 15.01 0 011.011 3.41 18.654 18.654 0 01-.23 7.405z" fill="#5b0d0b"/></svg>