<svg xmlns="http://www.w3.org/2000/svg" width="75.501" height="74.251"><g data-name="Сгруппировать 11624" transform="translate(1.5 1.5)"><path data-name="Контур 4718" d="M40.867 62.119a31.691 31.691 0 1121.711-22.95" fill="none" stroke="#fff" stroke-linecap="round" stroke-linejoin="round" stroke-width="3"/><g data-name="Сгруппировать 11068" fill="#fff"><path data-name="Контур 4719" d="M49.582 58.797h-5.154v-3.436a2.581 2.581 0 012.577-2.577.85.85 0 00.859-.859v-.859a.859.859 0 10-1.718 0h-1.718a2.577 2.577 0 015.154 0v.859a2.581 2.581 0 01-2.577 2.577.851.851 0 00-.859.859v1.288a.38.38 0 00.43.43h3.006z"/><path data-name="Контур 4720" d="M56.233 58.797h-1.718v-3.436h-3.436v-1.718l2.577-5.153h2.577zm-1.718-5.584v-3.006l-1.718 3.436h1.288a.38.38 0 00.43-.43z"/><path data-name="Контур 4721" d="M65.601 58.797h-1.718v-5.154a.859.859 0 10-1.718 0v5.154h-1.718V48.49h1.718v2.731a2.509 2.509 0 01.859-.155 2.582 2.582 0 012.577 2.576z"/></g><circle data-name="Эллипс 7" cx="16.386" cy="16.386" r="16.386" transform="rotate(-4.065 560.556 -507.501)" fill="none" stroke="#fff" stroke-linecap="round" stroke-linejoin="round" stroke-width="3"/><g data-name="Сгруппировать 11069" fill="none" stroke="#fff" stroke-linecap="round" stroke-linejoin="round" stroke-width="3"><path data-name="Линия 134" d="M31.727 24.948v13.559"/><path data-name="Линия 135" d="M38.507 31.728H24.948"/></g><path data-name="Контур 4722" d="M31.728 9.806a21.922 21.922 0 103.394 43.581 19.654 19.654 0 011.869-8.138 14.508 14.508 0 118.527-9.011 19.639 19.639 0 018.021-2.322 22.26 22.26 0 00.109-2.188 21.922 21.922 0 00-21.92-21.922z" fill="#fff"/></g></svg>