<svg xmlns="http://www.w3.org/2000/svg" width="56.64" height="73.63"><g data-name="Сгруппировать 11623"><g data-name="Сгруппировать 11541"><g data-name="Сгруппировать 11535" transform="translate(1.533 1.516)"><path data-name="Прямоугольник 2390" d="M9.4 8.516a2.144 2.144 0 01-1.956-2.317l.151-1.794 4.275.36-.151 1.794A2.146 2.146 0 019.4 8.516z" fill="#fff"/><path data-name="Контур 4657" d="M23.362 2.388l-.052-.443A1.746 1.746 0 0124.85.012h0a1.746 1.746 0 011.926 1.5l.038.278c5.57-.713 9.459 3.193 7.226 9.929-3.306 9.975-8.626 23.122-16.7 23.122S3.947 21.694.64 11.719C-1.593 4.982 2.296 1.077 7.866 1.79l.038-.278a1.746 1.746 0 011.925-1.5h0a1.746 1.746 0 011.54 1.933l-.052.443" fill="none" stroke="#fff" stroke-linecap="round" stroke-miterlimit="10" stroke-width="3"/><path data-name="Прямоугольник 2391" d="M22.812 4.766l4.275-.36.151 1.794a2.144 2.144 0 01-1.956 2.318 2.146 2.146 0 01-2.319-1.957l-.151-1.795z" fill="#fff"/><circle data-name="Эллипс 3" cx="7.364" cy="7.364" r="7.364" transform="translate(38.879 33.782)" fill="none" stroke="#fff" stroke-linecap="round" stroke-miterlimit="10" stroke-width="3"/><path data-name="Контур 4658" d="M46.243 41.556a4.4 4.4 0 01-3.638-1.929 3.943 3.943 0 107.276 0 4.4 4.4 0 01-3.638 1.929z" fill="#fff"/><path data-name="Контур 4659" d="M17.34 34.837v21.131a8.9 8.9 0 01-8.9 8.9 6.906 6.906 0 01-7.121-7.121c.226-3.573 2.567-5.439 5.7-5.7a6.944 6.944 0 016.217 3.191" fill="none" stroke="#fff" stroke-linecap="round" stroke-miterlimit="10" stroke-width="3"/><path data-name="Контур 4660" d="M18.148 63.298s7.122 7.316 16.531 7.316h0a11.564 11.564 0 0011.569-11.563V48.51" fill="none" stroke="#fff" stroke-linecap="round" stroke-miterlimit="10" stroke-width="3"/><path data-name="Контур 4661" d="M51.751 31.708a10.383 10.383 0 00-11.017 0" fill="none" stroke="#fff" stroke-linecap="round" stroke-miterlimit="10" stroke-width="3"/></g></g></g></svg>