<svg xmlns="http://www.w3.org/2000/svg" width="74.626" height="72.47"><g data-name="Сгруппировать 11544"><g data-name="Сгруппировать 11540"><path data-name="Контур 4877" d="M21.333 49.3l-15.548.071a4.092 4.092 0 01-4.11-4.073l-.18-39.4a4.09 4.09 0 014.072-4.109l63.265-.29a4.091 4.091 0 014.109 4.071l.18 39.4a4.091 4.091 0 01-4.072 4.109l-15.548.071" fill="none" stroke="#fff" stroke-linecap="round" stroke-miterlimit="10" stroke-width="3"/><path data-name="Контур 4878" d="M49.078 49.087a11.659 11.659 0 10-11.6 11.711 11.658 11.658 0 0011.6-11.711z" fill="none" stroke="#fff" stroke-miterlimit="10" stroke-width="3"/><path data-name="Контур 4879" d="M38.792 41.568a6.343 6.343 0 11-8.929 9.011 7.7 7.7 0 108.929-9.011z" fill="#fff"/><path data-name="Контур 4880" d="M49.057 36.6a16.535 16.535 0 00-23.384.107" fill="none" stroke="#fff" stroke-linecap="round" stroke-miterlimit="10" stroke-width="3"/><path data-name="Контур 4881" d="M40.736 60.566l8.246 8.171-.037-8.181 8.18-.038-8.247-8.17" fill="none" stroke="#fff" stroke-linecap="round" stroke-miterlimit="10" stroke-width="3"/><path data-name="Контур 4882" d="M34.212 60.596l-8.171 8.246-.037-8.181-8.18.038 8.171-8.246" fill="none" stroke="#fff" stroke-linecap="round" stroke-miterlimit="10" stroke-width="3"/><path data-name="Линия 232" fill="none" stroke="#fff" stroke-linecap="round" stroke-miterlimit="10" stroke-width="3" d="M52.674 21.701l-30.437.139"/><path data-name="Линия 233" fill="none" stroke="#fff" stroke-linecap="round" stroke-miterlimit="10" stroke-width="3" d="M16.818 14.758l41.159-.189"/></g></g></svg>