<svg xmlns="http://www.w3.org/2000/svg" width="74.346" height="62.822"><g data-name="Сгруппировать 11539"><g data-name="Сгруппировать 11538" transform="translate(1.5 1.5)"><path data-name="Контур 4712" d="M71.346 19.388v36.941a3.492 3.492 0 01-3.492 3.493H3.493A3.493 3.493 0 010 56.329V19.388" fill="none" stroke="#fff" stroke-miterlimit="10" stroke-width="3"/><g data-name="Сгруппировать 11064"><g data-name="Сгруппировать 11063"><path data-name="Контур 4713" d="M12.22 6.538a3.227 3.227 0 00-.262 1.266 3.307 3.307 0 006.613 0 3.221 3.221 0 00-.262-1.266" fill="none" stroke="#fff" stroke-linecap="round" stroke-miterlimit="10" stroke-width="3"/></g><path data-name="Линия 131" fill="none" stroke="#fff" stroke-linecap="round" stroke-miterlimit="10" stroke-width="3" d="M15.265 7.744V0"/></g><g data-name="Сгруппировать 11066"><g data-name="Сгруппировать 11065"><path data-name="Контур 4714" d="M59.126 6.538a3.219 3.219 0 01.262 1.266 3.307 3.307 0 01-6.613 0 3.221 3.221 0 01.262-1.266" fill="none" stroke="#fff" stroke-linecap="round" stroke-miterlimit="10" stroke-width="3"/></g><path data-name="Линия 132" fill="none" stroke="#fff" stroke-linecap="round" stroke-miterlimit="10" stroke-width="3" d="M56.082 7.744V0"/></g><path data-name="Линия 133" fill="none" stroke="#fff" stroke-linecap="round" stroke-miterlimit="10" stroke-width="3" d="M52.427 2.146H18.919"/><path data-name="Контур 4715" d="M11.611 2.146H3.493A3.493 3.493 0 000 5.639v13.749h71.346V5.639a3.492 3.492 0 00-3.492-3.493h-8.118" fill="none" stroke="#fff" stroke-linecap="round" stroke-miterlimit="10" stroke-width="3"/><path data-name="Контур 4716" d="M42.928 38.135h-5.785V32.35h-2.94v5.785h-5.785v2.94h5.785v5.785h2.94v-5.785h5.785z" fill="#fff"/><circle data-name="Эллипс 6" cx="14.436" cy="14.436" r="14.436" transform="translate(21.237 25.168)" fill="none" stroke="#fff" stroke-linecap="round" stroke-miterlimit="10" stroke-width="3"/><path data-name="Контур 4717" d="M62.037 8.633a5.964 5.964 0 01-11.912 0H21.22a5.964 5.964 0 01-11.911 0H2.982v6.642h65.383V8.633z" fill="#fff"/></g></g></svg>