<svg xmlns="http://www.w3.org/2000/svg" width="67.24" height="74.16" viewBox="0 0 67.24 74.16">
  <g id="Сгруппировать_11571" data-name="Сгруппировать 11571" transform="translate(-977.238 -624.11)">
    <g id="Сгруппировать_11091" data-name="Сгруппировать 11091" transform="translate(980.08 625.814)">
      <path id="Контур_4777" data-name="Контур 4777" d="M1655.259,1059.952l-4.186-2.821a2.256,2.256,0,0,0-3.13.609l-26.321,39.059a2.255,2.255,0,0,0,.61,3.13l4.186,2.82a2.254,2.254,0,0,0,3.129-.61l26.322-39.058A2.256,2.256,0,0,0,1655.259,1059.952Z" transform="translate(-1600.819 -1056.746)" fill="none" stroke="#0c380f" stroke-miterlimit="10" stroke-width="3"/>
      <path id="Контур_4778" data-name="Контур 4778" d="M1585.121,1163.767c13.149-.153,23.3-17.474,23.3-17.474a2.629,2.629,0,0,0-.711-3.648l-3.567-2.4a2.628,2.628,0,0,0-3.648.711Z" transform="translate(-1585.121 -1092.844)" fill="none" stroke="#0c380f" stroke-miterlimit="10" stroke-width="3"/>
      <line id="Линия_149" data-name="Линия 149" x1="2.699" y2="4.005" transform="translate(23.174 46.19)" fill="none" stroke="#0c380f" stroke-linecap="round" stroke-miterlimit="10" stroke-width="3"/>
      <line id="Линия_150" data-name="Линия 150" y1="4.005" x2="2.699" transform="translate(18.475 43.023)" fill="none" stroke="#0c380f" stroke-linecap="round" stroke-miterlimit="10" stroke-width="3"/>
      <line id="Линия_151" data-name="Линия 151" y1="19.474" x2="13.123" transform="translate(31.364 13.458)" fill="none" stroke="#0c380f" stroke-linecap="round" stroke-miterlimit="10" stroke-width="3"/>
    </g>
    <line id="Линия_152" data-name="Линия 152" x2="6.272" transform="translate(994.236 696.737)" fill="none" stroke="#0c380f" stroke-linecap="round" stroke-miterlimit="10" stroke-width="3"/>
    <line id="Линия_153" data-name="Линия 153" x2="6.272" transform="translate(1008.393 696.737)" fill="none" stroke="#0c380f" stroke-linecap="round" stroke-miterlimit="10" stroke-width="3"/>
    <line id="Линия_154" data-name="Линия 154" x2="6.271" transform="translate(1022.55 696.737)" fill="none" stroke="#0c380f" stroke-linecap="round" stroke-miterlimit="10" stroke-width="3"/>
    <line id="Линия_155" data-name="Линия 155" x2="6.271" transform="translate(1036.706 696.737)" fill="none" stroke="#0c380f" stroke-linecap="round" stroke-miterlimit="10" stroke-width="3"/>
    <path id="Контур_4779" data-name="Контур 4779" d="M1620.085,1166.056a51.307,51.307,0,0,1-3.839,4.1h45.3v-4.1Z" transform="translate(-618.57 -478.445)" fill="#145a19"/>
  </g>
</svg>
