<svg xmlns="http://www.w3.org/2000/svg" width="62.429" height="73.863" viewBox="0 0 62.429 73.863">
  <g id="Сгруппировать_11681" data-name="Сгруппировать 11681" transform="translate(-1190.622 -310.64)">
    <g id="Сгруппировать_11061" data-name="Сгруппировать 11061" transform="translate(1211.809 341.656)">
      <path id="Контур_4700" data-name="Контур 4700" d="M2002.841,558.9a24.082,24.082,0,0,0-5.38-4.551,1.6,1.6,0,0,0-2.2,2.179,27.5,27.5,0,0,1,4.089,14.218v12.5s.152,5.366,3.189,5.974" transform="translate(-1995.021 -554.103)" fill="none" stroke="#0c380f" stroke-linecap="round" stroke-miterlimit="10" stroke-width="3"/>
      <path id="Контур_4701" data-name="Контур 4701" d="M2017,558.9a24.082,24.082,0,0,1,5.38-4.551,1.6,1.6,0,0,1,2.2,2.179,27.5,27.5,0,0,0-4.089,14.218v12.5s-.152,5.366-3.189,5.974" transform="translate(-2004.575 -554.103)" fill="none" stroke="#0c380f" stroke-linecap="round" stroke-miterlimit="10" stroke-width="3"/>
      <path id="Контур_4702" data-name="Контур 4702" d="M2012.491,612.738l1.109,1.13a3.207,3.207,0,0,1,.322,4.111c-1.244,1.743-3.247,3.643-5.666,2.647a1.642,1.642,0,0,0-1.255,0c-2.419,1-4.422-.9-5.666-2.647a3.207,3.207,0,0,1,.322-4.111l1.109-1.13" transform="translate(-1997.506 -579.59)" fill="none" stroke="#0c380f" stroke-linecap="round" stroke-miterlimit="10" stroke-width="3"/>
    </g>
    <path id="Контур_4703" data-name="Контур 4703" d="M1986.336,515.846s-3.325,10.809,6.885,14.53c0,0,.658,5.125,7.922,5.125" transform="translate(-779.213 -195.816)" fill="none" stroke="#0c380f" stroke-linecap="round" stroke-miterlimit="10" stroke-width="3"/>
    <path id="Контур_4704" data-name="Контур 4704" d="M2039.12,509.781l.418-1.215a9.761,9.761,0,0,1,8.637-6.663,5.129,5.129,0,0,1,5.474,3.272c2.352,5.722-5.99,9.21-8.189,23.7-.876,5.775,2.42,11.67,4,17.293.265.942,2.694,7.024,2.01,12.465" transform="translate(-802.381 -189.752)" fill="none" stroke="#0c380f" stroke-linecap="round" stroke-miterlimit="10" stroke-width="3"/>
    <ellipse id="Эллипс_5" data-name="Эллипс 5" cx="7.85" cy="6.047" rx="7.85" ry="6.047" transform="translate(1234.945 375.332) rotate(-74.29)" fill="none" stroke="#0c380f" stroke-linecap="round" stroke-miterlimit="10" stroke-width="3"/>
    <path id="Контур_4705" data-name="Контур 4705" d="M2045.642,602.36a5.833,5.833,0,0,1,.089-2.957c.6-2.125,2.1-3.439,3.152-3.439a1.076,1.076,0,0,1,.3.041c1.056.3,1.794,2.368,1.195,4.616A5.876,5.876,0,0,0,2045.642,602.36Z" transform="translate(-805.152 -230.641)" fill="#145a19"/>
    <path id="Контур_4706" data-name="Контур 4706" d="M2027.735,515.846s3.325,10.809-6.885,14.53c0,0-.658,5.125-7.923,5.125" transform="translate(-790.996 -195.816)" fill="none" stroke="#0c380f" stroke-linecap="round" stroke-miterlimit="10" stroke-width="3"/>
    <path id="Контур_4707" data-name="Контур 4707" d="M2016.349,511.707a25.067,25.067,0,0,0-14.809-5.383h0a25.066,25.066,0,0,0-14.809,5.383" transform="translate(-779.611 -191.678)" fill="none" stroke="#0c380f" stroke-linecap="round" stroke-miterlimit="10" stroke-width="3"/>
    <path id="Контур_4708" data-name="Контур 4708" d="M1974.908,509.781l-.418-1.215a9.761,9.761,0,0,0-8.638-6.663,5.128,5.128,0,0,0-5.473,3.272c-2.352,5.722,5.99,9.21,8.189,23.7.876,5.775-2.421,11.67-4,17.293-.265.942-2.694,7.024-2.01,12.465" transform="translate(-767.975 -189.752)" fill="none" stroke="#0c380f" stroke-linecap="round" stroke-miterlimit="10" stroke-width="3"/>
    <path id="Контур_4709" data-name="Контур 4709" d="M1976.568,595.613c1.174,4.174-.481,8.29-3.7,9.194s-6.772-1.746-7.946-5.92.481-8.29,3.695-9.195S1975.393,591.439,1976.568,595.613Z" transform="translate(-769.967 -227.84)" fill="none" stroke="#0c380f" stroke-linecap="round" stroke-miterlimit="10" stroke-width="3"/>
    <path id="Контур_4710" data-name="Контур 4710" d="M1975.954,602.36a5.829,5.829,0,0,0-.088-2.957c-.6-2.125-2.1-3.439-3.152-3.439a1.078,1.078,0,0,0-.3.041c-1.056.3-1.795,2.368-1.195,4.616A5.875,5.875,0,0,1,1975.954,602.36Z" transform="translate(-772.773 -230.641)" fill="#145a19"/>
    <path id="Контур_4711" data-name="Контур 4711" d="M2005.485,527.7a20.476,20.476,0,0,1,9.68-12.69,18.771,18.771,0,0,0-19.359,0A20.476,20.476,0,0,1,2005.485,527.7Z" transform="translate(-783.555 -194.287)" fill="#145a19"/>
  </g>
</svg>
