<svg xmlns="http://www.w3.org/2000/svg" width="75.977" height="73.486" viewBox="0 0 75.977 73.486">
  <g id="Сгруппировать_11753" data-name="Сгруппировать 11753" transform="translate(-1766.474 -793.626)">
    <path id="Контур_4690" data-name="Контур 4690" d="M2047.253,695.758c-2.435,2.91-2.646,6.744-.472,8.562s5.909.933,8.344-1.977,2.646-6.744.472-8.562S2049.688,692.847,2047.253,695.758Z" transform="translate(-222.059 105.25)" fill="none" stroke="#0c380f" stroke-miterlimit="10" stroke-width="3"/>
    <path id="Контур_4691" data-name="Контур 4691" d="M2052.275,702.281a4.674,4.674,0,0,0-.991,2.46,1.388,1.388,0,0,0,.282,1.083.885.885,0,0,0,.573.155h0a4.275,4.275,0,0,0,2.992-1.707,5.45,5.45,0,0,0,.9-1.486A4.724,4.724,0,0,1,2052.275,702.281Z" transform="translate(-224.668 101.145)" fill="#145a19"/>
    <path id="Контур_4692" data-name="Контур 4692" d="M1999.216,702.408l.185-.185c1.267-1.259,3.872-3.372,7.1-3.372s5.831,2.113,7.1,3.372" transform="translate(-202.037 102.637)" fill="none" stroke="#0c380f" stroke-linecap="round" stroke-miterlimit="10" stroke-width="3"/>
    <path id="Контур_4693" data-name="Контур 4693" d="M2015.112,689.5a2.776,2.776,0,0,1,4.792,1.05,15.627,15.627,0,0,1-5.307,16.487,13.233,13.233,0,0,1-7.163,2.634c-4.056.4-10.967-.148-17.738-6.37-.316-.291-.617-.6-.921-.9-.706-.7-2.618-2.385-4.706-2.385s-4,1.683-4.706,2.385c-.3.3-.605.609-.921.9-6.771,6.222-13.683,6.767-17.738,6.37a13.233,13.233,0,0,1-7.163-2.634,15.627,15.627,0,0,1-5.307-16.487,2.776,2.776,0,0,1,4.793-1.05" transform="translate(-179.607 107.125)" fill="none" stroke="#0c380f" stroke-linecap="round" stroke-miterlimit="10" stroke-width="3"/>
    <ellipse id="Эллипс_4" data-name="Эллипс 4" cx="5.132" cy="6.871" rx="5.132" ry="6.871" transform="matrix(0.767, -0.642, 0.642, 0.767, 1771.451, 802.324)" fill="none" stroke="#0c380f" stroke-miterlimit="10" stroke-width="3"/>
    <path id="Контур_4694" data-name="Контур 4694" d="M1968.272,702.281a4.673,4.673,0,0,1,.992,2.46,1.385,1.385,0,0,1-.282,1.083.885.885,0,0,1-.573.155h0a4.275,4.275,0,0,1-2.992-1.707,5.45,5.45,0,0,1-.9-1.486A4.723,4.723,0,0,0,1968.272,702.281Z" transform="translate(-186.953 101.145)" fill="#145a19"/>
    <path id="Контур_4695" data-name="Контур 4695" d="M1982.555,725.211s4.589.794,5.623,10.825a17.73,17.73,0,0,0,1.62,5.906,14.335,14.335,0,0,0,2.087,3.205s-1.39,8.881,1.343,12.555l-.348.423a5.333,5.333,0,0,0-.976,4.953l3.492,11.352h3.863" transform="translate(-194.795 91.18)" fill="none" stroke="#0c380f" stroke-linecap="round" stroke-miterlimit="10" stroke-width="3"/>
    <path id="Контур_4696" data-name="Контур 4696" d="M2028.8,725.211s-4.589.794-5.623,10.825a17.732,17.732,0,0,1-1.619,5.906,14.364,14.364,0,0,1-2.088,3.205s1.39,8.881-1.343,12.555l.348.423a5.333,5.333,0,0,1,.976,4.953l-3.491,11.352H2012.1" transform="translate(-207.637 91.18)" fill="none" stroke="#0c380f" stroke-linecap="round" stroke-miterlimit="10" stroke-width="3"/>
    <path id="Контур_4697" data-name="Контур 4697" d="M1996.578,732.1a22.635,22.635,0,0,1,16.372-6.982c.056,0,.11,0,.166,0a17.091,17.091,0,0,1,1.372-3.086,28.85,28.85,0,0,1-7-4.8c-.283-.259-.557-.531-.829-.8l-.187-.187a2.615,2.615,0,0,0-4.63,0l-.173.174c-.278.277-.555.553-.844.819a28.835,28.835,0,0,1-7.005,4.8,22.663,22.663,0,0,1,2.63,9.146C1996.48,731.5,1996.53,731.8,1996.578,732.1Z" transform="translate(-199.689 95.682)" fill="#145a19"/>
    <path id="Контур_4698" data-name="Контур 4698" d="M2001.433,782.685a8.128,8.128,0,0,0,4.476,1.366" transform="translate(-203 66.195)" fill="none" stroke="#0c380f" stroke-linecap="round" stroke-miterlimit="10" stroke-width="3"/>
    <path id="Контур_4699" data-name="Контур 4699" d="M2019.325,782.685a8.127,8.127,0,0,1-4.475,1.366" transform="translate(-208.832 66.195)" fill="none" stroke="#0c380f" stroke-linecap="round" stroke-miterlimit="10" stroke-width="3"/>
    <line id="Линия_130" data-name="Линия 130" y1="9.611" transform="translate(1804.463 835.453)" fill="none" stroke="#0c380f" stroke-linecap="round" stroke-miterlimit="10" stroke-width="3"/>
  </g>
</svg>
