<svg xmlns="http://www.w3.org/2000/svg" width="73.435" height="73.226" viewBox="0 0 73.435 73.226">
  <g id="Сгруппировать_12315" data-name="Сгруппировать 12315" transform="translate(-347.809 -1042.471)">
    <path id="Контур_5262" data-name="Контур 5262" d="M561.371,1831.9a35.823,35.823,0,0,0,1.022-4.035c2.928-14.752-3.975-22.636-8.11-25.23a11.757,11.757,0,0,0-6.824-1.8,7.142,7.142,0,0,0-7,5.522,2.223,2.223,0,0,1-4.143.355,19.481,19.481,0,0,1-2.271-9.362v-.935" transform="translate(-148.168 -752.445)" fill="none" stroke="#fff" stroke-linecap="round" stroke-miterlimit="10" stroke-width="3"/>
    <path id="Контур_5263" data-name="Контур 5263" d="M568.01,1822.545a13.762,13.762,0,0,0-5.445-8.105,6.885,6.885,0,0,0-3.628-1.058" transform="translate(-158.988 -759.82)" fill="none" stroke="#fff" stroke-linecap="round" stroke-miterlimit="10" stroke-width="3"/>
    <path id="Контур_5264" data-name="Контур 5264" d="M483.39,1904.542c0-2.34-.048-16.354.205-18.966a2.173,2.173,0,0,1,3.856-1.151c.836,1.044,1.684,2.006,2.532,2.889,5.892,6.142,13.578,9.23,21.33,8.7" transform="translate(-126.148 -790.346)" fill="none" stroke="#fff" stroke-linecap="round" stroke-miterlimit="10" stroke-width="3"/>
    <path id="Контур_5265" data-name="Контур 5265" d="M491.9,1825.507v7.889a3.919,3.919,0,0,0,1.965,3.177,21.08,21.08,0,0,0,5.462,2.576c8.227,2.117,15.187-2.8,15.973-10.523a20.349,20.349,0,0,0-2.392-10.92,46.408,46.408,0,0,1-5.332-18.949v-2.34" transform="translate(-129.848 -752.445)" fill="none" stroke="#fff" stroke-linecap="round" stroke-miterlimit="10" stroke-width="3"/>
    <path id="Контур_5266" data-name="Контур 5266" d="M469.36,1889.008V1868.33a11.092,11.092,0,0,1,4.8-9.014,3.694,3.694,0,0,0,1.539-2.979v-8.464" transform="translate(-120.051 -774.813)" fill="none" stroke="#fff" stroke-linecap="round" stroke-miterlimit="10" stroke-width="3"/>
    <path id="Контур_5267" data-name="Контур 5267" d="M564.144,1864.266a14.861,14.861,0,0,1-2.539,3,24.73,24.73,0,0,1,1.9,11.6c-.508,6.708-5.451,11.57-11.775,11.57a11.831,11.831,0,0,1-11.741-10.872,16.846,16.846,0,0,1,3.231-11.2,14.851,14.851,0,0,1-3.9-4.1,17.683,17.683,0,1,0,24.828,0Z" transform="translate(-148.168 -781.938)" fill="#fff"/>
    <path id="Контур_5268" data-name="Контур 5268" d="M558.764,1883.208a8.563,8.563,0,0,1-8.5-7.869,13.462,13.462,0,0,1,4.1-10.711,16.727,16.727,0,0,0,4.958-9.509c9.27,9.413,7.994,19.291,7.978,19.4l-.008.079C566.942,1879.586,563.352,1883.208,558.764,1883.208Z" transform="translate(-155.203 -777.961)" fill="#fff"/>
  </g>
</svg>
