<svg xmlns="http://www.w3.org/2000/svg" width="76.915" height="74.066" viewBox="0 0 76.915 74.066">
  <g id="Сгруппировать_12133" data-name="Сгруппировать 12133" transform="translate(-1731.175 -2196.847)">
    <g id="Сгруппировать_11189" data-name="Сгруппировать 11189" transform="translate(1784.25 2238.279)">
      <path id="Контур_4992" data-name="Контур 4992" d="M2974.654,1140.4l1.715-2.122a7.176,7.176,0,0,0-5.583-11.724h0a7.176,7.176,0,0,0-5.475,11.775l15.623,18.708,4.445-3.957-16.26-19.221a7.048,7.048,0,0,1-1.374-6.634" transform="translate(-2963.631 -1126.555)" fill="none" stroke="#fff" stroke-linecap="round" stroke-miterlimit="10" stroke-width="3"/>
    </g>
    <path id="Контур_4993" data-name="Контур 4993" d="M2917.307,1120.315c.392-14.795,2.116-29.776-3.562-37.3a6.2,6.2,0,0,0-4.716-1.959,5.089,5.089,0,0,0-4.037,2.144c-3.256,4.592-6.892,7.036-10.807,7.263-5.446.322-10.225-3.951-11.234-9.653-1.865-10.548,5.109-18.627,5.165-18.707a11.79,11.79,0,0,0-3.794-3.671,15.778,15.778,0,0,0-4.529-2.183c-.322.456-9.249,11.094-6.908,26.045,1.731,11.062,11.04,18.963,21.889,18.327a21.678,21.678,0,0,0,12.215-4.789.727.727,0,0,1,1.172.491c.581,5.674-1.122,24.1-1.1,29.47a13.543,13.543,0,0,0,5.421.817l4.039-.019a10.158,10.158,0,0,0,7.81-3.718l6.923-8.447" transform="translate(-1139.766 1142.285)" fill="none" stroke="#fff" stroke-linecap="round" stroke-miterlimit="10" stroke-width="3"/>
    <path id="Контур_4994" data-name="Контур 4994" d="M2922.48,1089.117l11.619-.043c2.855-.011,7.4.231,10.174-.463,4.607-1.154,8.431-4.115,8.409-9-.021-4.414-2.766-7.372-7.211-8.618-3.13-.877-8.634-.691-11.884-.677l-24.949.114c-11.33.052-16.049,5.639-16.049,5.639" transform="translate(-1148.5 1136.184)" fill="none" stroke="#fff" stroke-linecap="round" stroke-miterlimit="10" stroke-width="3"/>
    <path id="Контур_4995" data-name="Контур 4995" d="M2899.034,1094.318a12.158,12.158,0,0,1,11.273-6.834c11.166-.051,34.058-.621,34.058-.621" transform="translate(-1151.303 1128.977)" fill="none" stroke="#fff" stroke-linecap="round" stroke-miterlimit="10" stroke-width="3"/>
  </g>
</svg>
