<svg xmlns="http://www.w3.org/2000/svg" width="74.294" height="75.279" viewBox="0 0 74.294 75.279">
  <path id="Контур_4587" data-name="Контур 4587" d="M542.928,1451.214a5.9,5.9,0,0,1,0-9.693,5.9,5.9,0,0,1-1.18-9.693,5.909,5.909,0,0,0-5.909-5.909l-.042,0-.042,0a5.9,5.9,0,0,0-4.854,2.543,5.9,5.9,0,0,0-9.866.291,5.985,5.985,0,0,0-.482-.553,5.906,5.906,0,0,0-9.122.935,5.9,5.9,0,0,0-9.658.123,5.9,5.9,0,0,0-9.671.049,5.9,5.9,0,0,0-9.866.291,6,6,0,0,0-.482-.553,11.2,11.2,0,0,0-7.431,18.793,16.416,16.416,0,0,1-2.556,15.28,9.246,9.246,0,0,0,9.459-15.562,5.891,5.891,0,0,0,2.255-4.635,8.159,8.159,0,0,0-.718-2.67,1.676,1.676,0,0,1,2.122-2.205,8.128,8.128,0,0,0,2.379.556,5.9,5.9,0,0,0,4.853-2.543,5.9,5.9,0,0,0,9.715-.049,5.9,5.9,0,0,0,9.7-.094,5.9,5.9,0,0,0,9.886-.416,5.892,5.892,0,0,0,4.64,2.259,13.441,13.441,0,0,0,3.494-1.048,1.646,1.646,0,0,1,2.192,1.99,14.162,14.162,0,0,0-.639,2.821,5.9,5.9,0,0,1,0,9.693,5.9,5.9,0,0,1,0,9.692,9.967,9.967,0,0,0,1.157,3.542,1.033,1.033,0,0,1-1.375,1.385,10.153,10.153,0,0,0-3.556-1.144h-.01a5.9,5.9,0,0,0-4.841,2.527,5.9,5.9,0,0,0-9.687.007,10.7,10.7,0,0,0-7.921,18.237,5.906,5.906,0,0,0,1.19,10.055v.084a2.6,2.6,0,1,0,5.2,0v-.263a18.454,18.454,0,0,1,2.615-14.9,8.374,8.374,0,0,0-.856-2.68,1.544,1.544,0,0,1,2.012-2.062,8.285,8.285,0,0,0,2.608.818,5.9,5.9,0,0,0,4.841-2.527,5.9,5.9,0,0,0,4.841,2.527h.01a5.9,5.9,0,0,0,4.841-2.527,10.706,10.706,0,0,0,8.216-17.921A5.9,5.9,0,0,0,542.928,1451.214Z" transform="translate(-470.148 -1424.42)" fill="none" stroke="#fff" stroke-linecap="round" stroke-miterlimit="10" stroke-width="3"/>
</svg>
