<svg xmlns="http://www.w3.org/2000/svg" width="69.677" height="74.346" viewBox="0 0 69.677 74.346">
  <g id="Сгруппировать_12134" data-name="Сгруппировать 12134" transform="translate(-1651.5 -2574.154)">
    <g id="Сгруппировать_11752" data-name="Сгруппировать 11752" transform="translate(-112.205 1945.678)">
      <path id="Контур_5269" data-name="Контур 5269" d="M1979.283,1443.891l2.084,9.812,3.27-5.249,2.5,12.661,3.27-5.249,1.9,9.341" transform="translate(-200.371 -803.211)" fill="none" stroke="#fff" stroke-linecap="round" stroke-miterlimit="10" stroke-width="3"/>
      <g id="Сгруппировать_11674" data-name="Сгруппировать 11674" transform="translate(576 -204)">
        <g id="Сгруппировать_11256" data-name="Сгруппировать 11256" transform="translate(1189.205 833.977)">
          <path id="Контур_5270" data-name="Контур 5270" d="M1998.386,1424.96v.95a19.8,19.8,0,0,0,2.308,9.511,2.259,2.259,0,0,0,4.209-.361,7.256,7.256,0,0,1,7.11-5.611,11.953,11.953,0,0,1,6.932,1.831c4.2,2.636,11.215,10.645,8.24,25.633a38.561,38.561,0,0,1-1.3,4.919s-3.207,12.087-13.546,20.162a26.889,26.889,0,0,1-3.287,2.159c-11.2,6.354-24.15,3.941-33.063-5.349-.861-.9-1.724-1.875-2.572-2.936a2.208,2.208,0,0,0-3.918,1.169c-.257,2.653-.209,16.891-.209,19.268" transform="translate(-1961.233 -1424.96)" fill="none" stroke="#fff" stroke-linecap="round" stroke-miterlimit="10" stroke-width="3"/>
          <path id="Контур_5271" data-name="Контур 5271" d="M2055.264,1451.506a13.98,13.98,0,0,0-5.532-8.235,6.993,6.993,0,0,0-3.686-1.075" transform="translate(-1994.597 -1432.452)" fill="none" stroke="#fff" stroke-linecap="round" stroke-miterlimit="10" stroke-width="3"/>
          <path id="Контур_5272" data-name="Контур 5272" d="M1977.937,1454.515v8.014a3.982,3.982,0,0,0,2,3.227,21.426,21.426,0,0,0,5.55,2.617c8.358,2.151,15.429-2.844,16.228-10.691a20.679,20.679,0,0,0-2.43-11.094,47.144,47.144,0,0,1-5.418-19.251v-2.377" transform="translate(-1964.992 -1424.96)" fill="none" stroke="#fff" stroke-linecap="round" stroke-miterlimit="10" stroke-width="3"/>
          <path id="Контур_5273" data-name="Контур 5273" d="M1955.039,1519.03v-21.008a11.269,11.269,0,0,1,4.876-9.157,3.754,3.754,0,0,0,1.563-3.027v-8.6" transform="translate(-1955.039 -1447.685)" fill="none" stroke="#fff" stroke-linecap="round" stroke-miterlimit="10" stroke-width="3"/>
          <path id="Контур_5274" data-name="Контур 5274" d="M2002.414,1460.964c-.108-.074-.549-.351-1.115-.709l.008.016a24.2,24.2,0,0,1,2.837,13.1,15.622,15.622,0,0,1-6.578,11.464,15.944,15.944,0,0,1-9.207,2.829,18.988,18.988,0,0,1-4.73-.615l-.06-.016a24.582,24.582,0,0,1-6.552-3.077,9.206,9.206,0,0,1-1.359-1.118h-.01a22.3,22.3,0,0,0,8.706,8.74C2003.6,1501.757,2021.928,1474.375,2002.414,1460.964Z" transform="translate(-1963.998 -1440.302)" fill="#fff"/>
        </g>
      </g>
    </g>
  </g>
</svg>
