<svg id="Marke_Final_" data-name="Marke Final &gt;" xmlns="http://www.w3.org/2000/svg" width="207.701" height="85.03" viewBox="0 0 207.701 85.03">
  <g id="Сгруппировать_11750" data-name="Сгруппировать 11750" transform="translate(123.83 16.142)">
    <g id="Сгруппировать_11748" data-name="Сгруппировать 11748" transform="translate(0 33.427)">
      <path id="Контур_5936" data-name="Контур 5936" d="M95.765,62.588h-1.53L87.362,53.13l-2.389,2.107v7.35H83.725V44.68h1.249v9.309l1.984-1.984,7.019-7.325h1.593l-7.338,7.569Z" transform="translate(-83.725 -43.528)" fill="#647a84"/>
      <path id="Контур_5937" data-name="Контур 5937" d="M92.9,63.1H91.688V44.037H92.9Z" transform="translate(-77.419 -44.037)" fill="#647a84"/>
      <path id="Контур_5938" data-name="Контур 5938" d="M94.758,45.7q0-1.177.77-1.177a.686.686,0,0,1,.595.306,1.507,1.507,0,0,1,.215.871,1.532,1.532,0,0,1-.215.869.681.681,0,0,1-.595.319Q94.757,46.887,94.758,45.7Zm1.383,17.014H94.93V49.4h1.211Z" transform="translate(-74.988 -43.653)" fill="#647a84"/>
      <path id="Контур_5939" data-name="Контур 5939" d="M107.3,60.672V52.035a4.2,4.2,0,0,0-.844-2.919,3.41,3.41,0,0,0-2.621-.914,4.54,4.54,0,0,0-3.5,1.208,5.684,5.684,0,0,0-1.107,3.912v7.35H98.019V47.356h1.029l.233,1.826h.073q1.3-2.083,4.618-2.082,4.532,0,4.532,4.861v8.71Z" transform="translate(-72.406 -41.612)" fill="#647a84"/>
      <path id="Контур_5940" data-name="Контур 5940" d="M106.181,45.7q0-1.177.771-1.177a.68.68,0,0,1,.593.306,1.506,1.506,0,0,1,.217.871,1.532,1.532,0,0,1-.217.869.676.676,0,0,1-.593.319Q106.18,46.887,106.181,45.7Zm1.383,17.014h-1.213V49.4h1.213Z" transform="translate(-65.943 -43.653)" fill="#647a84"/>
      <path id="Контур_5941" data-name="Контур 5941" d="M110.629,57.254l6.8-7.472H118.9l-5.243,5.684,5.7,7.632h-1.459l-5.058-6.725-2.181,1.984V63.1h-1.213V44.037h1.213v9.554l-.086,3.663Z" transform="translate(-63.361 -44.037)" fill="#647a84"/>
      <path id="Контур_5942" data-name="Контур 5942" d="M121.935,60.917a5.806,5.806,0,0,1-4.528-1.79,7.191,7.191,0,0,1-1.622-5.008,7.812,7.812,0,0,1,1.568-5.1A5.17,5.17,0,0,1,121.58,47.1a4.56,4.56,0,0,1,3.711,1.641,6.774,6.774,0,0,1,1.36,4.458v.98h-9.592a6.3,6.3,0,0,0,1.279,4.189,4.509,4.509,0,0,0,3.6,1.444,11.04,11.04,0,0,0,2-.159,12.151,12.151,0,0,0,2.186-.684v1.1a9.771,9.771,0,0,1-2.082.667A11.566,11.566,0,0,1,121.935,60.917Zm-.355-12.74a3.993,3.993,0,0,0-3.087,1.267,5.991,5.991,0,0,0-1.36,3.657h8.232a5.793,5.793,0,0,0-1.005-3.618A3.3,3.3,0,0,0,121.58,48.177Z" transform="translate(-58.338 -41.612)" fill="#647a84"/>
      <path id="Контур_5943" data-name="Контур 5943" d="M133.184,60.672V52.035a4.2,4.2,0,0,0-.846-2.919,3.4,3.4,0,0,0-2.621-.914,4.536,4.536,0,0,0-3.5,1.208,5.684,5.684,0,0,0-1.107,3.912v7.35H123.9V47.356h1.03l.233,1.826h.073q1.3-2.083,4.618-2.082,4.532,0,4.532,4.861v8.71Z" transform="translate(-51.913 -41.612)" fill="#647a84"/>
    </g>
    <g id="Сгруппировать_11749" data-name="Сгруппировать 11749" transform="translate(0.007)">
      <path id="Контур_5944" data-name="Контур 5944" d="M96.105,53.748,85.614,27.764H85.46q.156,2.387.154,4.888v21.1H83.729V25.607H86.77l9.97,24.755h.116l9.97-24.755h2.964V53.748h-1.982V32.421q0-2.231.231-4.619h-.154L97.356,53.748Z" transform="translate(-83.729 -25.204)" fill="#647a84"/>
      <path id="Контур_5945" data-name="Контур 5945" d="M102.71,53.748V25.607h1.964V53.748Z" transform="translate(-68.699 -25.204)" fill="#647a84"/>
      <path id="Контур_5946" data-name="Контур 5946" d="M117.263,53.748h-1.984V27.456h-9.142V25.607H126.4v1.849h-9.142Z" transform="translate(-65.985 -25.204)" fill="#647a84"/>
      <path id="Контур_5947" data-name="Контур 5947" d="M132.453,27.152a10.63,10.63,0,0,0-8.334,3.388q-3.043,3.387-3.041,9.276,0,6.026,2.867,9.355t8.2,3.331a22.173,22.173,0,0,0,6.5-.9V53.33a21.188,21.188,0,0,1-6.967.982,11.853,11.853,0,0,1-9.336-3.829q-3.408-3.83-3.408-10.7a16.794,16.794,0,0,1,1.627-7.565,11.773,11.773,0,0,1,4.679-5.053,13.818,13.818,0,0,1,7.092-1.779,17.023,17.023,0,0,1,7.372,1.539l-.788,1.77A14.3,14.3,0,0,0,132.453,27.152Z" transform="translate(-55.846 -25.382)" fill="#647a84"/>
    </g>
  </g>
  <path id="Контур_5948" data-name="Контур 5948" d="M115.4,27.414a15.9,15.9,0,0,0-1.874-4.695,10.481,10.481,0,0,0-.774-1.122,1.944,1.944,0,0,0-.285-.317c-.007-.007-.013-.043-.016-.041v.029l-.009-.007.007-.013-.007.005h0l0,0-.009,0,0,0h0l-.011,0,0,0v0h0a4.276,4.276,0,0,0-.957-.613,30.308,30.308,0,0,0-2.865-1.382A36.047,36.047,0,0,0,98.079,16.5a22.485,22.485,0,0,0-13.794,2.824A17.1,17.1,0,0,0,81.323,21.5c-.446.418-.928.8-1.337,1.244l-.663.871-.373.219c-.5.328-.975.7-1.453,1.052a13.75,13.75,0,0,0-3.349,3.949,12.993,12.993,0,0,0-2.234,2,9.878,9.878,0,0,0-1.864,3.2c-.19.17-.373.346-.57.509A9.6,9.6,0,0,0,68.449,35.8a6.975,6.975,0,0,0-.921,1.355,9.824,9.824,0,0,0-.79,1.881,12.236,12.236,0,0,0-1.505,1.613,11.979,11.979,0,0,0-1.507-1.622,10.011,10.011,0,0,0-.787-1.878,6.909,6.909,0,0,0-.921-1.356,9.737,9.737,0,0,0-1.032-1.258c-.194-.161-.375-.333-.561-.5a9.908,9.908,0,0,0-1.862-3.213,12.9,12.9,0,0,0-2.258-2.027,14.368,14.368,0,0,0-5.143-5.18,13.7,13.7,0,0,0-2.209-2.281,20.069,20.069,0,0,0-8.076-4.213,27.593,27.593,0,0,0-13.518.294,39.267,39.267,0,0,0-7.25,2.609,7.872,7.872,0,0,0-2.1,1.211l.007,0,.009,0-.007,0,0,0h0l.005.005a5.2,5.2,0,0,0,.683.862c.468.539,1.184,1.3,2.109,2.218a91.116,91.116,0,0,0,7.895,6.888A148.151,148.151,0,0,0,48.545,44.116c-.453.8-.921,1.606-1.412,2.4-11.626-6.892-19.424-12.679-24-17.091A21.893,21.893,0,0,1,18.47,23.5,5.021,5.021,0,0,1,18,21.813a3.925,3.925,0,0,1,.023-.566c-.007-.005-.022.02-.036.047L18,21.241l0-.005a1.461,1.461,0,0,0-.323.349,10.774,10.774,0,0,0-.776,1.124,15.979,15.979,0,0,0-1.869,4.7,18.731,18.731,0,0,0-.043,7.653,19.106,19.106,0,0,0,.6,2.2A11.184,11.184,0,0,0,16.42,39.5c.348.754.7,1.516,1.05,2.283q.688,1.1,1.383,2.22c3.853,6,10.085,11.463,16.955,16.016.41.287.828.564,1.242.846l-.9,1.222-1.838,2.767a41.851,41.851,0,0,0-5.4,11.3A23.911,23.911,0,0,0,28.2,87a18.866,18.866,0,0,0,3.336,7.976,21.185,21.185,0,0,0,3.953,4.182c.547.4.968.713,1.276.891a1.7,1.7,0,0,0,.466.245l0,0,0,0h0l0,0,.005,0,0,0,0,0,0,.007V100.3l.007,0-.005.009-.007.005.023-.009,0,0-.029.009a.427.427,0,0,0,.043,0,.531.531,0,0,0,.065.021.39.39,0,0,0-.113-.02,2.18,2.18,0,0,0,.511.206,15.122,15.122,0,0,0,1.541.409,23.552,23.552,0,0,0,5.958.435,29.443,29.443,0,0,0,8.88-1.844,21.644,21.644,0,0,0,9.112-6.644A25.273,25.273,0,0,0,65.229,90.1a24.7,24.7,0,0,0,2.027,2.831,21.642,21.642,0,0,0,9.11,6.6,29.365,29.365,0,0,0,8.863,1.824,23.36,23.36,0,0,0,5.94-.441,14.115,14.115,0,0,0,1.534-.41c.116-.038.185-.066.26-.095.156-.038.26-.07.256-.088l-.005,0-.025-.007.023-.013-.038.007a.332.332,0,0,0-.045-.011h0a.575.575,0,0,0,.086,0l-.048-.018h0l.048.018,0,0-.023-.03.029-.009,0,.048,0,.005,0,0h0l.007-.007-.009.014h0l0,0,0,0,0,0,.005,0a1.637,1.637,0,0,0,.473-.249c.31-.177.731-.489,1.276-.892a21.282,21.282,0,0,0,3.955-4.191A18.961,18.961,0,0,0,102.259,87a23.929,23.929,0,0,0-.715-10.843,41.855,41.855,0,0,0-5.4-11.3L94.305,62.1l-.9-1.227c.414-.28.828-.557,1.24-.842,6.87-4.551,13.1-10.013,16.953-16.017q.7-1.115,1.382-2.222l1.052-2.281a11.32,11.32,0,0,0,.824-2.245,19.365,19.365,0,0,0,.6-2.193A18.719,18.719,0,0,0,115.4,27.414ZM94.085,93.082c-.9-4.63-3.766-10.7-7.933-17.125-1.358-2.118-2.883-4.27-4.471-6.46.864-.756,1.751-1.5,2.665-2.222,2.154,2.964,4.2,5.843,5.877,8.683,3.956,6.461,5.782,12.919,5.44,17.51a13.071,13.071,0,0,1-1.369,5.186,11.244,11.244,0,0,1-.629,1.041,5.028,5.028,0,0,0,.455-1.15A12.258,12.258,0,0,0,94.085,93.082ZM73.013,81.288c-.469-.6-.939-1.213-1.41-1.837a22.026,22.026,0,0,1,.874-3.252c.136-.355.323-.7.478-1.045.464.631.917,1.213,1.38,1.826A14.727,14.727,0,0,0,73.013,81.288Zm1.833-3.634c.52.684,1.05,1.4,1.563,2.064,4.689,6.06,8.836,11.251,11.848,14.9,1.505,1.824,2.731,3.259,3.593,4.229q.559.618,1,1.1c.142.149.231.235.292.29h0c-.068-.048-.174-.118-.349-.229-.374-.244-.792-.518-1.263-.824-1.095-.729-2.675-1.813-4.566-3.281a65.794,65.794,0,0,1-6.345-5.619,101.1,101.1,0,0,1-6.906-8.1l-.152-.2a11.431,11.431,0,0,1,.276-1.58A12.785,12.785,0,0,1,74.846,77.654Zm-.7,11.219q-1.239-1.226-2.491-2.55a17.274,17.274,0,0,1-.367-4.336c.02-.435.064-.864.116-1.29.511.647,1.021,1.287,1.528,1.91-.013.344-.061.7-.045,1.032A16.588,16.588,0,0,0,74.147,88.873Zm18.279,11.348c-.079-.007-.147-.014-.237-.025-.663-.066-1.623-.192-2.808-.421a24.209,24.209,0,0,1-8.857-3.523,17.723,17.723,0,0,1-4.211-4.139c-.086-.136-.163-.281-.247-.421.753.654,1.505,1.283,2.256,1.86a37.28,37.28,0,0,0,7.46,4.415,34.144,34.144,0,0,0,5.4,1.923c.633.168,1.124.272,1.468.335C92.587,100.225,92.5,100.223,92.426,100.221ZM16.985,28.2C17.9,32.738,21.919,38.13,27.5,43.093c1.414,1.227,2.946,2.423,4.485,3.684q2.473,1.763,4.972,3.548C38.7,51.457,40.5,52.568,42.3,53.7c-.063.086-.122.174-.185.262-.564.769-1.123,1.53-1.684,2.3l-2.967-1.987c-.846-.582-1.724-1.118-2.534-1.726l-2.394-1.829c-.787-.611-1.593-1.19-2.344-1.808L28.03,47a45.2,45.2,0,0,1-3.953-3.863l-.917-.96-.8-1.018q-.785-.994-1.563-1.976c-.428-.677-.857-1.351-1.276-2.021l-.613-.977-.473-1.011a17.147,17.147,0,0,1-1.98-7.318,13.329,13.329,0,0,1,.373-3.68A10.823,10.823,0,0,0,16.985,28.2Zm26.4,26.6c.065-.091.127-.185.192-.274q1.368.876,2.7,1.792c-.624.883-1.244,1.774-1.874,2.647-.581-.41-1.159-.824-1.751-1.217-.324-.215-.643-.43-.966-.645C42.253,56.333,42.814,55.57,43.384,54.8ZM51.5,41.423c.887.5,1.761.987,2.607,1.459l.226.122c-.4.9-.831,1.8-1.3,2.681-.244-.12-.491-.251-.733-.369-.747-.367-1.473-.733-2.188-1.1.17-.323.358-.638.523-.962C50.94,42.652,51.225,42.039,51.5,41.423ZM49.582,23.49l.932.572.38.53c.159.233.344.45.478.692l.331.76c.025.057.052.115.077.172-.733-.337-1.46-.65-2.163-.973a55.85,55.85,0,0,0-8.547-2.586A77.324,77.324,0,0,0,27.94,21c-3.437-.152-5.924-.1-7.546-.021-.745.039-1.287.082-1.677.124l.41-.095c.719-.161,1.76-.409,3.078-.645a55.389,55.389,0,0,1,10.653-1,35.994,35.994,0,0,1,13.555,2.521A23.779,23.779,0,0,1,49.582,23.49Zm6.454,7.157c.027.082.038.167.061.251-.783-.461-1.571-.88-2.356-1.265a11.917,11.917,0,0,0-.351-1.693c.72.432,1.441.855,2.084,1.331A9.531,9.531,0,0,1,56.036,30.647Zm6.836,8.778a11.527,11.527,0,0,1,.423,2.466c-.357-.194-.713-.391-1.077-.554-.439-.2-.892-.4-1.339-.606a16.863,16.863,0,0,0,.233-2.664,16.723,16.723,0,0,1,1.593,1.2C62.765,39.314,62.815,39.373,62.872,39.425Zm4.716.009c.057-.05.106-.109.165-.159a16.758,16.758,0,0,1,1.6-1.2,16.653,16.653,0,0,0,.229,2.666l-1.344.606c-.364.163-.72.36-1.079.555A11.638,11.638,0,0,1,67.589,39.434Zm6.856-8.78a9.8,9.8,0,0,1,.545-1.34,18.165,18.165,0,0,1,1.747-1.143c.122-.079.245-.147.367-.222-.152.59-.319,1.172-.41,1.752-.794.4-1.575.808-2.32,1.244C74.4,30.849,74.414,30.749,74.444,30.654Zm6.639-7.279a28.038,28.038,0,0,1,8.253-3.159,43.566,43.566,0,0,1,13.245-.663,60.039,60.039,0,0,1,9.1,1.577c-.113-.013-.226-.023-.362-.036-.727-.065-1.79-.131-3.12-.167a83.756,83.756,0,0,0-10.635.41A65.986,65.986,0,0,0,83.991,24.1c-1.134.4-2.26.824-3.376,1.249-.64.3-1.283.595-1.921.891a12.252,12.252,0,0,1,1.281-2.2C80.343,23.8,80.712,23.58,81.083,23.375Zm-9.04,66.066c.288.613.5,1.244.833,1.8.349.554.692,1.089,1.018,1.609a17.227,17.227,0,0,0,5.076,4.467,23.207,23.207,0,0,0,5.069,2.059,29.4,29.4,0,0,0,6.974,1c.1,0,.174,0,.271,0-.595.007-1.3,0-2.132-.045a24.938,24.938,0,0,1-9.714-2.491,20.514,20.514,0,0,1-8.949-8.906,18.077,18.077,0,0,1-1.5-4.216c.452.505.9,1.016,1.356,1.5.31.321.616.624.926.937A13.3,13.3,0,0,0,72.043,89.441ZM49.9,53.721q1.3.927,2.568,1.916-.8,1.244-1.622,2.466c-.788-.65-1.595-1.279-2.421-1.878-.05-.036-.1-.068-.154-.106.3-.426.6-.846.887-1.278C49.408,54.471,49.65,54.093,49.9,53.721Zm9.943-16.507a15.113,15.113,0,0,1-.206,2.955c-.81-.366-1.64-.74-2.476-1.12a19.4,19.4,0,0,0,.518-3.163C58.405,36.311,59.14,36.736,59.842,37.214Zm-3.887,1.292c-1-.448-1.944-.876-2.9-1.306a22.007,22.007,0,0,0,.7-3.39c.95.471,1.865.951,2.756,1.441A18.357,18.357,0,0,1,55.956,38.506Zm1.021,1.267c.849.407,1.686.81,2.5,1.2a20.083,20.083,0,0,1-.505,1.955c-.151.469-.349.928-.521,1.392q-1.271-.659-2.587-1.337A29.555,29.555,0,0,0,56.977,39.773ZM60.3,43.3c.168-.568.312-1.143.434-1.722l1.072.514a14.914,14.914,0,0,1,1.5.819c0,.192.009.382,0,.572a17.735,17.735,0,0,1-.394,2.238c-.142.224-.253.464-.373.7-.8-.41-1.6-.8-2.365-1.211l-.464-.238C59.907,44.412,60.131,43.865,60.3,43.3Zm10.327-6.076c.7-.477,1.435-.9,2.161-1.322.022.288.03.577.07.864a21.513,21.513,0,0,0,.455,2.3l-2.482,1.118A15,15,0,0,1,70.628,37.223Zm7.049-6.592c.005-.285.041-.561.068-.84,1.244-.618,2.484-1.181,3.679-1.69a72.916,72.916,0,0,1,8.355-2.84,111.779,111.779,0,0,1,12.855-2.751c3.376-.527,5.834-.8,7.44-.971.819-.086,1.412-.145,1.8-.19-.152.034-.326.072-.536.12-.93.237-1.9.478-3.007.76-2.552.674-6.11,1.67-10.146,2.917a184.018,184.018,0,0,0-20.425,7.528A15.925,15.925,0,0,1,77.677,30.631ZM58.984,85.308c-.065.358-.145.7-.215,1.052q-1.22,1.29-2.428,2.487a16.017,16.017,0,0,0,.762-2.265,14.234,14.234,0,0,0,.423-4q.742-.922,1.489-1.881A18.589,18.589,0,0,1,58.984,85.308ZM37,99.865a5.028,5.028,0,0,1-.461-1.362,12.481,12.481,0,0,1,.262-5.34c1.034-4.512,4.014-10.439,8.253-16.756,1.353-2.041,2.867-4.119,4.44-6.243.849.776,1.659,1.571,2.414,2.4-1.075,1.457-2.114,2.9-3.073,4.322a113.781,113.781,0,0,0-9.626,16.3,26.588,26.588,0,0,0-1.831,5.168,4.845,4.845,0,0,0-.151,1.872l-.02,0-.016-.025A3.14,3.14,0,0,1,37,99.865ZM51.881,66.95c.8.851,1.537,1.733,2.233,2.636q-.825,1.1-1.631,2.188c-.742-.846-1.534-1.663-2.367-2.455Q50.99,68.147,51.881,66.95Zm5.139-7.166q1.226,1.274,2.312,2.641-.914,1.32-1.847,2.605a34.033,34.033,0,0,0-2.224-2.716Q56.15,61.065,57.02,59.784Zm-2.5,1.754q-1.226-1.279-2.559-2.457.849-1.247,1.674-2.523c.907.781,1.781,1.6,2.63,2.439Q55.4,60.28,54.521,61.538Zm5.229-5.976c.127.12.258.238.387.358a15.28,15.28,0,0,0,.251,4.942c-.1.145-.192.292-.288.437Q59,59.932,57.784,58.664c.607-.917,1.206-1.847,1.786-2.794C59.629,55.769,59.688,55.665,59.749,55.563Zm11.3-1.543c-.5-.874-.973-1.765-1.416-2.666.959-.733,1.942-1.425,2.958-2.061.453.907.937,1.8,1.437,2.681L71.24,53.85C71.174,53.9,71.111,53.964,71.047,54.02Zm-.165,1.846q.871,1.419,1.786,2.8-1.223,1.266-2.315,2.634c-.163-.242-.323-.487-.482-.729A16.257,16.257,0,0,0,70.1,56.2c.21-.2.423-.394.633-.591C70.784,55.693,70.832,55.781,70.882,55.865ZM69.291,68.1c-.326-.509-.652-1.014-.969-1.532.077-.142.143-.285.224-.425.249-.441.554-.855.83-1.285A15.672,15.672,0,0,1,69.291,68.1ZM56.968,83.621a16.175,16.175,0,0,1-1.52,6.11c-1.261,1.215-2.509,2.338-3.736,3.331a38.268,38.268,0,0,1-7.219,4.551,38.611,38.611,0,0,1-5.275,2.123c-.634.2-1.132.34-1.468.434l-.082.021c-.061,0-.1,0-.152,0,.065-.032.115-.056.2-.1.306-.161.753-.407,1.322-.744,1.136-.672,2.761-1.7,4.711-3.112a62.214,62.214,0,0,0,6.553-5.487,84.241,84.241,0,0,0,6.639-7.463C56.945,83.4,56.97,83.512,56.968,83.621ZM37.315,100.261l0,0-.025.018,0,0Zm-.045.027-.021.005v-.047l.043.013Zm2.131-.254c-.538.07-.937.111-1.272.145.314-.065.677-.145,1.143-.271a33.957,33.957,0,0,0,5.4-1.928,37.412,37.412,0,0,0,7.458-4.419c.744-.573,1.487-1.193,2.233-1.84a14.887,14.887,0,0,1-3.772,4.06,19.111,19.111,0,0,1-4.585,2.557A26.671,26.671,0,0,1,39.4,100.033ZM56.7,82.218a95.582,95.582,0,0,1-6.875,8.088,65.6,65.6,0,0,1-6.336,5.612c-1.887,1.466-3.46,2.552-4.553,3.281l-1.263.822c-.118.077-.2.129-.271.177h-.023c.063-.059.136-.133.238-.242l1-1.1c.86-.971,2.08-2.408,3.586-4.231,3.01-3.648,7.15-8.841,11.839-14.9.5-.647,1.014-1.346,1.521-2.014a13.468,13.468,0,0,1,1.287,4.311C56.8,82.086,56.753,82.154,56.7,82.218Zm-3.369-2.992c-4.175,5.519-8.18,10.812-11.463,15.154L37.337,100.2a.212.212,0,0,0-.088.02,6.674,6.674,0,0,1,.308-1.826,29.156,29.156,0,0,1,2.034-5.042,125.7,125.7,0,0,1,9.974-16c.946-1.333,1.953-2.691,2.989-4.069.539.627,1.061,1.265,1.528,1.926A15.835,15.835,0,0,1,55.1,76.823C54.51,77.624,53.911,78.452,53.334,79.226ZM54.8,74.759A25.9,25.9,0,0,0,53.135,72.5q.785-1.04,1.591-2.1a27.26,27.26,0,0,1,2.3,3.772c-.471.661-.932,1.283-1.4,1.926C55.365,75.637,55.089,75.187,54.8,74.759Zm.6-5.247c.469-.618.941-1.236,1.416-1.865.172-.231.348-.469.521-.7a28.1,28.1,0,0,1,2.143,3.679q-.9,1.336-1.817,2.629A28.3,28.3,0,0,0,55.4,69.512Zm2.706-3.6q.962-1.3,1.91-2.63c.039.052.086.1.124.154-.011.077-.034.151-.047.226a16.567,16.567,0,0,0,.192,5.8c-.021.032-.043.061-.065.093A28.4,28.4,0,0,0,58.11,65.911Zm5.546-15.152a23.688,23.688,0,0,0,.869,2.435c-.344-.326-.69-.647-1.048-.95-.206-.185-.435-.333-.645-.511a10.619,10.619,0,0,1,.817-1.007Zm4.3-.523c.013.149.016.3.021.446a11.5,11.5,0,0,0-.91-1.089c.079-.385.136-.772.185-1.163C67.46,49.038,67.7,49.639,67.952,50.235Zm.756,4.218a9.729,9.729,0,0,1,.283,1.41c-.113.1-.222.208-.337.31-.2.2-.391.418-.588.627a22.776,22.776,0,0,0,.624-2.4C68.7,54.419,68.7,54.436,68.709,54.453ZM61.077,64.87c.272.425.573.835.821,1.272.082.142.151.288.229.434-.317.514-.641,1.016-.966,1.521A15.535,15.535,0,0,1,61.077,64.87ZM62.79,52.946c.509.439.993.908,1.462,1.392q-.443.919-.934,1.817a19.308,19.308,0,0,1-.735-3.378C62.65,52.837,62.724,52.886,62.79,52.946Zm5.08-.159a19.173,19.173,0,0,1-.735,3.365c-.326-.595-.636-1.2-.93-1.81.468-.482.951-.95,1.459-1.389C67.73,52.895,67.8,52.846,67.87,52.787Zm-2.6,7.551c-.265-.407-.547-.8-.835-1.19-.143-.337-.308-.665-.441-1.007-.081-.21-.151-.423-.226-.636.124-.213.258-.418.38-.633.068-.122.129-.245.2-.367.28-.378.579-.742.883-1.1.3.353.595.711.869,1.082.068.125.133.254.2.38.122.217.258.423.383.64-.075.21-.145.423-.224.631-.179.455-.394.894-.588,1.344C65.67,59.765,65.463,60.046,65.272,60.338Zm-2.349-1.423q.288.363.559.733c.3.7.6,1.4.93,2.082a25.959,25.959,0,0,0-1.586,3.3,27.245,27.245,0,0,1-1.129-3.39,15.661,15.661,0,0,1,.733-1.907C62.6,59.465,62.756,59.186,62.923,58.915Zm.557,7.58c.045-.131.095-.26.142-.389q.836-1.384,1.606-2.826.806,1.508,1.681,2.955c-.534,1.211-1.127,2.4-1.76,3.548q-.61-1.083-1.167-2.2C63.826,67.215,63.657,66.853,63.48,66.495Zm4.08-1.851a25.646,25.646,0,0,0-1.475-3c.267-.547.5-1.115.745-1.675q.357-.505.736-.993c.158.254.3.518.464.769q.333.726.593,1.478A27.519,27.519,0,0,1,67.56,64.644Zm1.382-5.485c-.185-.387-.389-.762-.6-1.134.24-.276.491-.543.74-.81a15.083,15.083,0,0,1-.1,2.007Zm-2.154-8.354a10.145,10.145,0,0,1,.745,1.007c-.179.151-.373.278-.548.434-.362.3-.71.627-1.055.953A24.222,24.222,0,0,0,66.788,50.805Zm-5.1,3.238a21.878,21.878,0,0,0,.658,2.625c-.192-.2-.374-.409-.573-.6-.165-.145-.326-.3-.487-.444a8.966,8.966,0,0,1,.244-1.149C61.57,54.324,61.641,54.188,61.69,54.043Zm-.538,2.849c.342.349.676.7,1,1.073-.224.389-.439.783-.633,1.188-.081.125-.165.245-.244.369A14.086,14.086,0,0,1,61.152,56.892Zm.267,12.7c.036-.052.07-.108.1-.159-.021.108-.052.213-.072.319C61.439,69.7,61.432,69.647,61.419,69.593Zm8.49-14.573c-.057-.272-.09-.548-.168-.819a9.072,9.072,0,0,0-.366-1q.417.779.853,1.541C70.122,54.833,70.013,54.923,69.909,55.02Zm3.933-6.479q1.333-.788,2.675-1.516c.461.871.935,1.735,1.439,2.586-.889.511-1.778,1.05-2.672,1.6C74.781,50.325,74.3,49.438,73.842,48.54Zm3.949-2.2c.238-.125.478-.258.715-.382.738-.387,1.453-.77,2.161-1.152.441.806.894,1.609,1.369,2.4-.747.448-1.494.9-2.217,1.321-.194.115-.394.228-.59.342C78.729,48.037,78.252,47.193,77.791,46.342Zm3.3-3.684c-.315-.607-.613-1.222-.9-1.84,11.038-6.263,18.836-11.049,24.018-14.245,2.844-1.8,4.838-3.053,6.3-3.973.932-.607,1.491-.987,1.752-1.184-.131.133-.326.337-.6.616-.495.518-1.227,1.256-2.166,2.157a98.338,98.338,0,0,1-7.952,6.788A136.2,136.2,0,0,1,81.619,43.589C81.447,43.278,81.261,42.971,81.094,42.658Zm-1.274.59c.17.333.362.658.538.989-.74.375-1.48.751-2.2,1.1-.238.116-.486.245-.727.366-.452-.862-.867-1.735-1.261-2.613L76.324,43c.928-.518,1.786-1.007,2.672-1.507C79.259,42.084,79.533,42.67,79.82,43.247Zm2.1.874A139.412,139.412,0,0,0,105.51,28.09c2.57-2.2,4.315-3.91,5.417-5.062a11.66,11.66,0,0,0,1.509-1.751.372.372,0,0,0,.014.077,3.209,3.209,0,0,1-.194.973,9.8,9.8,0,0,1-1.482,2.706,45.354,45.354,0,0,1-7.547,7.6,168.843,168.843,0,0,1-19.94,13.824C82.814,45.68,82.361,44.9,81.918,44.122Zm29.559-22.316-2.623,1.622c-2.412,1.473-5.456,3.331-8.97,5.474-5.983,3.6-13.3,7.8-19.938,11.368a31.807,31.807,0,0,1-1.177-3.017c11.226-5.383,19.379-9.216,24.833-11.767,3.043-1.43,5.175-2.428,6.739-3.163.606-.287,1.045-.5,1.385-.668ZM78.748,40.914c-.948.507-1.881,1-2.79,1.473l-.086.045A29.215,29.215,0,0,1,74.706,39.2l2.9-1.39A32.13,32.13,0,0,0,78.748,40.914Zm-3.806,2.842c.378.873.772,1.738,1.206,2.587-.891.453-1.778.934-2.668,1.432-.414-.857-.8-1.72-1.15-2.593C73.208,44.706,74.082,44.231,74.942,43.756Zm-2.722,4.732c-1.025.611-2.025,1.278-3,1.991-.09-.2-.181-.391-.265-.588a10.507,10.507,0,0,0-.609-2.57c.779-.409,1.568-.808,2.331-1.238.136-.072.262-.143.4-.217C71.423,46.754,71.81,47.626,72.221,48.488Zm-6.06.263c-.036-.03-.068-.066-.1-.1.043-.029.084-.063.127-.091C66.175,48.626,66.171,48.689,66.16,48.752Zm-.855.536c.22.183.412.391.616.588-.05.206-.086.416-.143.62-.161.541-.348,1.079-.552,1.611-.2-.532-.387-1.066-.548-1.607-.059-.215-.1-.434-.151-.65.176-.158.337-.33.521-.48.059-.047.127-.086.186-.133C65.257,49.255,65.284,49.27,65.306,49.288Zm-.894-.659c-.041.032-.077.073-.118.106-.013-.073-.016-.147-.027-.222.052.036.1.077.151.113Zm-1.2-.2c.047.378.1.751.176,1.122a12.253,12.253,0,0,0-.9,1c.005-.106.014-.211.021-.317C62.758,49.64,63,49.04,63.209,48.431Zm-2.835,6.363c-.039-.036-.081-.068-.12-.1l.231-.4C60.435,54.453,60.416,54.624,60.375,54.794Zm-3.7,11.145c.025.034.045.072.07.106q-.973,1.325-1.941,2.62a34.251,34.251,0,0,0-2.213-2.673q.968-1.306,1.937-2.648C55.284,64.18,56.01,65.042,56.673,65.939Zm-19.444,34.3.014.052a.278.278,0,0,0-.039-.061Zm3.888-.251a23.893,23.893,0,0,0,9.02-3.453,18.157,18.157,0,0,0,4.356-4.195c.333-.505.643-1.034.939-1.573.968-.878,1.942-1.8,2.924-2.779a10.367,10.367,0,0,1-.423,1.285c-.265.6-.459,1.218-.769,1.767-.331.547-.649,1.073-.96,1.584a16.484,16.484,0,0,1-4.894,4.428,22.4,22.4,0,0,1-4.976,2.068,29.021,29.021,0,0,1-5.908.977C40.65,100.062,40.876,100.029,41.117,99.988Zm16.3-18.7c-.047-.339-.084-.681-.159-1.012A13.914,13.914,0,0,0,56.1,77.011c.466-.615.921-1.2,1.387-1.835.154.346.337.681.471,1.032a19.532,19.532,0,0,1,.853,3.247C58.343,80.079,57.88,80.686,57.416,81.288Zm1.373-5.349c-.19-.552-.446-1.091-.681-1.634.622-.853,1.24-1.743,1.858-2.629a25.043,25.043,0,0,1,1.005,2.777c-.013.652-.005,1.3.027,1.948q-.769,1.11-1.548,2.177A24.593,24.593,0,0,0,58.789,75.94Zm3.431-3.586a26.354,26.354,0,0,1,.692-3.971c.011-.043.025-.086.038-.131a21.82,21.82,0,0,1,1.167,3.331c-.147.249-.294.5-.443.747-.294.48-.6.941-.9,1.41C62.575,73.284,62.392,72.822,62.22,72.354Zm2.217.677c.111.6.2,1.2.258,1.8a18.561,18.561,0,0,0,.039,2.605c-.3-.5-.622-.987-.9-1.505-.2-.362-.382-.735-.563-1.107C63.663,74.232,64.055,73.641,64.437,73.031Zm1.254,4.449a18.414,18.414,0,0,0,.047-2.652c.052-.559.134-1.118.235-1.675q.575.892,1.168,1.756c-.168.342-.337.684-.518,1.016C66.333,76.461,66,76.966,65.691,77.481Zm.957-5.153c-.122-.2-.244-.407-.366-.607a21.735,21.735,0,0,1,1.263-3.587c.011.045.027.09.039.136a26.155,26.155,0,0,1,.692,3.958q-.293.82-.641,1.613C67.305,73.338,66.97,72.842,66.648,72.327Zm3.514-2.867a16.5,16.5,0,0,0,.194-5.795c-.011-.081-.036-.158-.048-.238.038-.052.084-.1.122-.152q.949,1.333,1.908,2.63a28.559,28.559,0,0,0-2.118,3.636C70.2,69.514,70.181,69.487,70.162,69.46Zm.957-7.038q1.089-1.368,2.313-2.641.871,1.279,1.758,2.53a33.669,33.669,0,0,0-2.227,2.715Q72.032,63.738,71.119,62.422ZM74.184,59c.851-.84,1.727-1.656,2.634-2.437q.822,1.277,1.672,2.521-1.339,1.175-2.562,2.455Q75.046,60.28,74.184,59Zm1.889-3.566Q74.71,56.6,73.426,57.863c-.545-.828-1.082-1.663-1.6-2.51-.093-.158-.185-.321-.28-.48.109-.095.213-.2.324-.294q1.287-.9,2.607-1.819c.487.835.984,1.665,1.493,2.482.038.061.079.118.116.179Zm1.184-.923c-.527-.839-1.041-1.69-1.543-2.544.887-.568,1.767-1.131,2.657-1.672.475.781.955,1.559,1.453,2.326q-1.3.917-2.564,1.9Zm2.374-4.99c.2-.124.4-.245.6-.369.736-.457,1.453-.908,2.161-1.356.446.731.9,1.457,1.369,2.175q-1.36.874-2.713,1.794C80.562,51.018,80.094,50.269,79.632,49.517Zm4-2.514c11.325-7.228,18.988-13.095,23.536-17.533a24,24,0,0,0,4.763-5.924,4.351,4.351,0,0,0,.573-1.964c.013.054.022.084.034.151a5.2,5.2,0,0,1,.029,1.417,12.179,12.179,0,0,1-1.951,4.942,38.211,38.211,0,0,1-5.363,6.306,83.35,83.35,0,0,1-8.167,6.739c-1.523,1.165-3.168,2.283-4.867,3.415-1.668,1.167-3.453,2.27-5.261,3.4-.64.4-1.29.808-1.939,1.217C84.543,48.449,84.084,47.727,83.631,47Zm6.883-18.961c5.048-1.815,9.2-3.1,12.461-4.075s5.639-1.613,7.193-2.041c.862-.237,1.446-.4,1.817-.507-.158.066-.342.145-.577.249l-2.813,1.261-9.549,4.383c-6.223,2.865-13.711,6.316-20.467,9.377a21.14,21.14,0,0,1-.751-3.433C82.463,31.019,86.774,29.43,90.514,28.041Zm-13.1,9.173q-1.484.669-2.9,1.306a18.41,18.41,0,0,1-.561-3.261q1.4-.763,2.759-1.446A21.923,21.923,0,0,0,77.417,37.214ZM73.5,39.783a30.586,30.586,0,0,0,1.134,3.288L72.04,44.408c-.185-.493-.392-.978-.552-1.476-.2-.645-.364-1.3-.5-1.946Zm-3.338,3.51c.179.6.414,1.175.627,1.761l-.536.278c-.74.4-1.511.774-2.283,1.161-.133-.265-.26-.532-.419-.787a18.077,18.077,0,0,1-.391-2.222c-.009-.19,0-.378,0-.566a14.625,14.625,0,0,1,1.491-.817c.355-.168.722-.344,1.08-.516C69.85,42.161,69.991,42.731,70.158,43.294Zm-3.89,2.312a10.411,10.411,0,0,1,.059,1.77c-.366.208-.722.439-1.077.676-.366-.263-.736-.518-1.118-.747a10.089,10.089,0,0,1,.059-1.7,9.554,9.554,0,0,1,1.041-1.179A9.479,9.479,0,0,1,66.268,45.605Zm-6.528.351c.79.439,1.6.853,2.4,1.279a10.445,10.445,0,0,0-.638,2.656c-.084.194-.174.387-.263.581q-1.462-1.07-3-1.993c.423-.887.817-1.786,1.174-2.7Zm1.088,5.39c-.439.892-.908,1.774-1.4,2.639-.091-.073-.174-.156-.267-.228l-2.72-1.8c.5-.878.982-1.767,1.433-2.67C58.887,49.922,59.871,50.613,60.828,51.346Zm-4.838,1.4q1.29.884,2.543,1.747c.138.109.262.235.4.349-.1.168-.2.339-.3.505-.523.849-1.063,1.686-1.607,2.518-.853-.84-1.733-1.654-2.639-2.43l-.016-.014c.038-.059.077-.116.115-.176Q55.253,54.012,55.99,52.746Zm-8.379,4.481q1.285.93,2.51,1.937-.941,1.371-1.894,2.716-1.274-1.059-2.611-2.05.968-1.312,1.921-2.654Zm3.621,2.915q1.333,1.169,2.55,2.437-.957,1.344-1.915,2.663c-.81-.835-1.659-1.636-2.539-2.41Q50.285,61.5,51.232,60.143ZM51.168,66.2q-.9,1.226-1.776,2.432c-.851-.776-1.724-1.536-2.627-2.272q.919-1.261,1.853-2.546C49.5,64.588,50.356,65.38,51.168,66.2ZM46.1,67.281q1.373,1.086,2.663,2.225c-1.584,2.186-3.105,4.333-4.46,6.449-4.162,6.429-7.028,12.5-7.92,17.127a12.249,12.249,0,0,0-.032,5.458,5.1,5.1,0,0,0,.419,1.082,11.048,11.048,0,0,1-.588-.98,13.02,13.02,0,0,1-1.374-5.173c-.346-4.585,1.468-11.043,5.422-17.5C41.908,73.125,43.95,70.245,46.1,67.281Zm-6.573,33.074-.073,0q.755-.013,1.724-.075a25.307,25.307,0,0,0,9.556-2.546,15.874,15.874,0,0,0,8.1-9.4c.125-.385.228-.776.331-1.167.31-.315.618-.62.932-.944.443-.469.882-.968,1.322-1.459-.106.453-.2.916-.335,1.349a14.584,14.584,0,0,1-.762,2.019c-.147.321-.292.64-.435.951-.181.3-.358.595-.536.885-.367.575-.668,1.174-1.066,1.692s-.808,1.02-1.192,1.505A20.567,20.567,0,0,1,46.64,99.5,26.242,26.242,0,0,1,39.528,100.356Zm20-14.8a17.721,17.721,0,0,0,.3-3.587,18.6,18.6,0,0,0-.172-2.107c.489-.64.978-1.283,1.464-1.948a29.327,29.327,0,0,0,.731,4.134c-.025.323-.07.634-.111.95C61.007,83.881,60.269,84.74,59.527,85.558Zm3.143-4.723a20.166,20.166,0,0,0-.226-4.257c-.02-.143-.054-.285-.079-.428.081-.115.161-.224.242-.34.1.192.2.389.3.575.527.953,1.093,1.869,1.688,2.756l-.009.075q-.844,1.239-1.745,2.406C62.779,81.36,62.724,81.1,62.67,80.835Zm4.876-4.446c.091-.165.174-.34.263-.509.079.115.161.224.242.337-.022.118-.048.238-.068.357a21.332,21.332,0,0,0-.2,4.413c-.048.219-.1.435-.151.652q-.93-1.193-1.794-2.467C66.436,78.278,67.012,77.352,67.546,76.389Zm3.319,9c.009.041.02.077.029.118-.749-.824-1.489-1.686-2.222-2.571-.032-.256-.052-.511-.075-.767a29.369,29.369,0,0,0,.769-4.132c.473.636.951,1.254,1.428,1.867A19.629,19.629,0,0,0,70.864,85.394Zm-1.371-8.829c.047-.785.05-1.573.03-2.363a25.788,25.788,0,0,1,.951-2.541c.618.885,1.233,1.772,1.855,2.623-.238.548-.5,1.089-.69,1.647a20.769,20.769,0,0,0-.672,2.668Q70.226,77.6,69.493,76.565Zm1.466-5.954a28.481,28.481,0,0,1,2.147-3.673c.176.235.351.473.525.706.473.625.943,1.242,1.41,1.858a28.323,28.323,0,0,0-2.268,3.731Q71.861,71.942,70.959,70.611Zm2.747-4.571c.023-.032.043-.068.066-.1.667-.9,1.392-1.76,2.152-2.6q.968,1.339,1.935,2.647a34.659,34.659,0,0,0-2.217,2.67Q74.675,67.363,73.706,66.04Zm2.96-3.462q1.22-1.266,2.553-2.437.946,1.36,1.9,2.688c-.88.774-1.729,1.575-2.539,2.41Q77.622,63.922,76.666,62.578Zm3.663-3.413q1.223-1.005,2.509-1.935l.077-.052q.949,1.341,1.917,2.654-1.336.986-2.611,2.048Q81.269,60.532,80.329,59.164Zm1.7-2.942c-.826.6-1.636,1.229-2.428,1.88q-.822-1.218-1.618-2.464,1.269-.986,2.57-1.915c.245.371.486.747.736,1.115.29.434.593.855.889,1.283C82.133,56.156,82.083,56.186,82.033,56.222Zm.538-2.174c-.269-.392-.527-.792-.792-1.188q1.341-.925,2.7-1.81.822,1.223,1.665,2.428-1.36.865-2.711,1.788C83.147,54.858,82.852,54.461,82.57,54.048Zm3.166-3.815c.645-.416,1.292-.831,1.939-1.242,1.808-1.154,3.587-2.285,5.254-3.487,1.692-1.168,3.327-2.324,4.845-3.53a78.576,78.576,0,0,0,8.083-7.019,36.659,36.659,0,0,0,5.22-6.61,11.779,11.779,0,0,0,1.727-5.184,4.621,4.621,0,0,0-.161-1.453c-.007-.023-.013-.03-.02-.052l.016.032A6.776,6.776,0,0,1,113.1,23a10.205,10.205,0,0,1-.152,5.087c-1.064,4.326-5.132,9.461-10.723,14.244-1.419,1.181-2.951,2.337-4.487,3.557q-2.467,1.715-4.965,3.448c-1.74,1.106-3.541,2.2-5.352,3.329Q86.564,51.454,85.737,50.234ZM81.121,25.859A52.6,52.6,0,0,1,89.5,23.116a71.629,71.629,0,0,1,13.036-1.806c3.421-.172,5.9-.125,7.517-.077l1.34.043-.075,0c-.727.047-1.785.134-3.1.271-2.634.278-6.316.762-10.488,1.552a86.017,86.017,0,0,0-19.9,6.019,11.2,11.2,0,0,1,.469-1.858C79.241,26.755,80.2,26.314,81.121,25.859Zm-4.478,4.492c0,.073-.016.147-.014.22a16.65,16.65,0,0,0,.039,2.605c-.941.437-1.849.882-2.736,1.335a12.166,12.166,0,0,1,.222-2.682C74.976,31.294,75.808,30.8,76.643,30.351Zm-3.917,4.772c-.039.02-.084.041-.124.063-.627.346-1.261.693-1.885,1.063a10.255,10.255,0,0,1,.541-2.27,8.192,8.192,0,0,1,1.131-.93c.167-.129.34-.229.511-.353A13.9,13.9,0,0,0,72.726,35.123Zm-7.492,8.042c-.1-.082-.21-.161-.315-.24.09-.2.21-.373.314-.561.1.188.224.369.314.564C65.44,43.007,65.336,43.084,65.234,43.165Zm-5.481-6.927c-.625-.371-1.261-.72-1.89-1.07l-.124-.063a14.011,14.011,0,0,0-.156-2.406c.159.115.34.217.5.333a8.33,8.33,0,0,1,1.138.941A10.3,10.3,0,0,1,59.753,36.237Zm-3.211-1.745q-1.384-.7-2.731-1.335a16.637,16.637,0,0,0,.041-2.587c0-.066-.018-.129-.023-.2q1.306.707,2.505,1.484A12.3,12.3,0,0,1,56.542,34.492Zm-4.2-6.949c.084.543.226,1.07.333,1.595C51.5,28.6,50.346,28.1,49.227,27.651a77.278,77.278,0,0,0-8.454-2.72,121.461,121.461,0,0,0-12.916-2.645c-3.383-.512-5.847-.779-7.46-.932-.641-.057-1.113-.091-1.493-.113.081,0,.149,0,.238-.007.96-.014,1.964-.032,3.112-.05a92.016,92.016,0,0,1,10.583.561,63.722,63.722,0,0,1,13.417,2.906c1.113.41,2.213.851,3.3,1.29.9.452,1.8.873,2.673,1.335C52.266,27.364,52.308,27.452,52.34,27.543ZM19.131,21.379c.955.111,1.946.226,3.086.355,2.625.324,6.3.837,10.45,1.656,6.307,1.24,13.889,3.268,20.115,6.415a4.07,4.07,0,0,1,.021.822,15.6,15.6,0,0,1-.086,2.021c-4.652-2.1-8.932-3.6-12.652-4.929-5.085-1.751-9.25-3.007-12.516-3.969s-5.652-1.6-7.212-2c-.794-.2-1.373-.346-1.754-.428C18.737,21.338,18.914,21.358,19.131,21.379Zm-.048.19c.925.258,1.881.529,2.982.837,2.537.72,6.082,1.745,10.1,3.021a166.008,166.008,0,0,1,20.479,7.841,21.233,21.233,0,0,1-.751,3.408c-11.328-5.114-19.485-8.872-24.941-11.4-3.053-1.412-5.193-2.4-6.761-3.123-.8-.367-1.356-.613-1.711-.76C18.647,21.444,18.837,21.5,19.083,21.569Zm-.082.19L21.776,23.1c2.557,1.208,5.777,2.727,9.5,4.481C37.5,30.507,45,34.033,51.707,37.241c-.328.991-.715,1.975-1.149,2.949-11.17-5.972-19-10.681-24.194-13.837l-6.316-3.917c-.561-.351-.971-.6-1.3-.8ZM52.872,37.8q1.484.71,2.892,1.39a28.753,28.753,0,0,1-1.136,3.157l-.154-.079c-.944-.495-1.817-.964-2.718-1.442A31.505,31.505,0,0,0,52.872,37.8Zm2.688,5.876,2.6,1.421q-.538,1.349-1.181,2.67c-.889-.5-1.774-.98-2.663-1.432C54.766,45.458,55.173,44.57,55.56,43.674Zm1.061,4.856c-.455.9-.941,1.785-1.444,2.665-.9-.538-1.79-1.068-2.682-1.573.509-.858.989-1.729,1.455-2.607Q55.293,47.739,56.621,48.53Zm-1.876,3.424Q53.989,53.239,53.2,54.5l-.007.013q-1.263-.978-2.561-1.9c.495-.762.973-1.536,1.444-2.312C52.969,50.841,53.854,51.395,54.745,51.954Zm-5.336-.192q-1.355-.922-2.713-1.794c.462-.706.908-1.419,1.349-2.138.693.432,1.39.867,2.061,1.281.229.143.473.285.706.428C50.353,50.284,49.889,51.027,49.408,51.762Zm-.731,1.1c-.263.394-.523.794-.79,1.186-.283.412-.579.81-.864,1.22q-1.352-.919-2.711-1.788.847-1.2,1.666-2.426Q47.336,51.935,48.677,52.859Zm-6.768,5.9c.6.391,1.183.8,1.77,1.215-.645.887-1.278,1.761-1.915,2.638q-1.373-.951-2.754-1.881l.357-.478c.523-.708,1.048-1.423,1.571-2.132C41.263,58.331,41.585,58.548,41.909,58.757Zm2.974,2.07q1.349.992,2.636,2.055-.933,1.314-1.856,2.611-1.33-1.054-2.725-2.045ZM45,66.43A105.044,105.044,0,0,0,39.162,75.4c-3.87,6.66-5.528,13.394-4.937,18.116a12.674,12.674,0,0,0,1.727,5.247c.151.235.29.426.423.606-.151-.168-.308-.349-.482-.57A16.367,16.367,0,0,1,33.2,94.023c-1.67-4.369-1.45-11.258,1.912-18.121a60.826,60.826,0,0,1,7.121-11.5Q43.647,65.39,45,66.43Zm6.187,31.732a21.2,21.2,0,0,0,9.262-9,19.2,19.2,0,0,0,1.869-5.419l.007-.009c.229.726.482,1.439.763,2.136-.174.532-.348,1.066-.53,1.579a32.635,32.635,0,0,1-1.724,4.035c-.391.59-.771,1.165-1.136,1.718A13.918,13.918,0,0,1,58.4,94.7a16.677,16.677,0,0,1-5.854,3.921,23.293,23.293,0,0,1-5.533,1.525,32.9,32.9,0,0,1-4.949.373A24.419,24.419,0,0,0,51.188,98.162Zm11.941-15.4c.387-.473.772-.944,1.149-1.437q-.288,1.5-.693,2.917C63.419,83.758,63.267,83.263,63.129,82.765Zm2.089-1.856a35.842,35.842,0,0,0,1.238,4.5,27.612,27.612,0,0,1-1.227,2.718,27.508,27.508,0,0,1-1.238-2.767A36.922,36.922,0,0,0,65.218,80.909Zm.894.33c.4.53.814,1.039,1.229,1.545q-.223.788-.486,1.554C66.555,83.3,66.3,82.261,66.112,81.238Zm2,2.6a18.326,18.326,0,0,0,.65,2.455,15.809,15.809,0,0,0,.839,2.062l.475.969c.192.3.38.6.568.894.385.581.708,1.183,1.125,1.706l1.249,1.514A21.353,21.353,0,0,0,83.735,99.77a25.326,25.326,0,0,0,4.881.762,29.807,29.807,0,0,1-9.875-1.593,16.681,16.681,0,0,1-9.655-8.56c-.645-1.455-1.231-2.949-1.733-4.447C67.633,85.247,67.884,84.546,68.114,83.835Zm7.126,7.314a15.477,15.477,0,0,0,4.421,4.874,19.6,19.6,0,0,0,4.677,2.559,25.37,25.37,0,0,0,5.779,1.541c-.26-.02-.532-.039-.819-.064a25.684,25.684,0,0,1-9.4-2.634,15.315,15.315,0,0,1-7.773-9.239c-.025-.079-.041-.161-.065-.242q1.513,1.505,3,2.849C75.12,90.907,75.175,91.034,75.24,91.149ZM73.412,74.157a27.279,27.279,0,0,1,2.306-3.763q.8,1.056,1.588,2.093a25.413,25.413,0,0,0-1.675,2.256c-.306.444-.543.908-.8,1.367C74.356,75.458,73.891,74.827,73.412,74.157Zm2.919-4.58c.7-.9,1.439-1.783,2.236-2.634q.89,1.193,1.761,2.365c-.833.79-1.627,1.606-2.371,2.449Q77.154,70.674,76.331,69.577ZM79.281,66.2c.81-.822,1.666-1.613,2.552-2.383q.93,1.282,1.847,2.541-1.352,1.1-2.627,2.268Q80.174,67.424,79.281,66.2ZM94.1,99.388c.134-.181.276-.376.426-.613a12.664,12.664,0,0,0,1.724-5.254C96.834,88.8,95.171,82.062,91.3,75.4a104.863,104.863,0,0,0-5.849-8.977q1.355-1.04,2.767-2.025A60.978,60.978,0,0,1,95.339,75.9c3.367,6.861,3.6,13.756,1.93,18.132a16.329,16.329,0,0,1-2.69,4.788C94.406,99.039,94.246,99.22,94.1,99.388Zm-9.312-33.9-1.853-2.6q1.287-1.062,2.638-2.055.978,1.32,1.942,2.618Q86.116,64.437,84.783,65.486Zm1.987-5.514c.586-.409,1.172-.822,1.769-1.213.326-.211.649-.428.975-.641.521.708,1.046,1.421,1.568,2.127l.36.482c-.919.624-1.842,1.249-2.758,1.883C88.046,61.734,87.414,60.859,86.771,59.972ZM87.8,57.743c-.593.394-1.175.808-1.76,1.218-.629-.871-1.247-1.761-1.871-2.645q1.339-.914,2.7-1.792c.065.09.127.181.19.271.57.772,1.132,1.537,1.7,2.306Zm.536-3.775c-.063-.086-.124-.176-.186-.263,1.8-1.134,3.594-2.243,5.338-3.376q2.5-1.779,4.972-3.55c1.539-1.26,3.069-2.457,4.485-3.686,5.576-4.963,9.6-10.361,10.5-14.9a10.758,10.758,0,0,0,.151-4.033,13.316,13.316,0,0,1,.382,3.684,17.128,17.128,0,0,1-1.973,7.32l-.471,1.009-.611.978q-.632,1-1.276,2.021-.771.978-1.561,1.973l-.8,1.018-.912.962A45.258,45.258,0,0,1,102.424,47l-2.159,1.91c-.753.624-1.557,1.2-2.346,1.812-1.571,1.222-3.184,2.451-4.926,3.555l-2.973,1.989C89.46,55.5,88.9,54.737,88.34,53.968ZM81.993,21.836a19.029,19.029,0,0,1,7.721-4.252,26.529,26.529,0,0,1,13.294.136,41.34,41.34,0,0,1,7.212,2.535c.708.324,1.217.573,1.577.744-.127-.041-.269-.086-.432-.134-.708-.206-1.743-.493-3.062-.762a52.7,52.7,0,0,0-10.71-1.156,37.156,37.156,0,0,0-13.8,2.387c-.848.4-1.713.76-2.537,1.2C81.5,22.289,81.739,22.055,81.993,21.836ZM78.143,25.38l-.154.324c-.174.38-.358.754-.529,1.131l-.056.027c-.466.278-.935.536-1.4.8A13.318,13.318,0,0,1,78.143,25.38Zm-4.8,5.365c-.109.342-.217.684-.3,1.037-.335.217-.693.418-1.016.643a8.825,8.825,0,0,1,.679-.986C72.914,31.193,73.131,30.971,73.348,30.745ZM69.153,36.27c.158-.2.294-.407.437-.613-.073.367-.156.733-.194,1.106-.009.1,0,.21-.011.315-.409.262-.814.536-1.217.815.056-.115.09-.237.151-.349A6.336,6.336,0,0,1,69.153,36.27Zm-2.815,4.464a13.053,13.053,0,0,0-.154,1.374c-.125-.229-.254-.455-.394-.676C65.958,41.19,66.148,40.963,66.338,40.733Zm-1.661.7c-.143.22-.274.448-.4.679a13.723,13.723,0,0,0-.156-1.383C64.315,40.955,64.5,41.186,64.677,41.43Zm-3.365-5.17a6.264,6.264,0,0,1,.831,1.276c.059.113.095.233.149.346-.4-.28-.8-.552-1.208-.812-.007-.1,0-.2-.009-.306a11.1,11.1,0,0,0-.194-1.107C61.023,35.859,61.158,36.067,61.312,36.261Zm-3.553-4.838a8.572,8.572,0,0,1,.683.994c-.335-.242-.677-.443-1.018-.665-.075-.339-.179-.674-.287-1.007C57.348,30.969,57.57,31.19,57.758,31.423Zm-5.315-5.974a13.314,13.314,0,0,1,2.01,2.186c-.095-.052-.188-.111-.283-.161-.387-.24-.779-.459-1.174-.663a12.754,12.754,0,0,0-.674-1.451C52.363,25.389,52.4,25.42,52.444,25.449ZM21.957,19.5a37.29,37.29,0,0,1,10.461-2.582,21.7,21.7,0,0,1,13.414,2.915,16.061,16.061,0,0,1,2.813,2.161c.194.188.4.371.595.555a29.357,29.357,0,0,0-8.015-2.8,45.817,45.817,0,0,0-13.387-.512A53.881,53.881,0,0,0,20.312,20.5c-.762.188-1.312.346-1.692.468l.437-.206C19.726,20.447,20.7,19.992,21.957,19.5ZM25.1,27.92c-2.575-2.184-4.317-3.888-5.435-5.019-.776-.788-1.235-1.283-1.464-1.511.151.111.383.274.711.5.794.52,1.623,1.063,2.575,1.683,2.2,1.416,5.311,3.363,8.9,5.542,5.992,3.654,13.33,7.92,19.911,11.635-.3.641-.606,1.279-.935,1.91-.161.3-.344.6-.512.908A126.664,126.664,0,0,1,25.1,27.92ZM49.8,44.8c.724.391,1.451.781,2.154,1.147.238.125.482.258.72.385-.468.86-.95,1.717-1.46,2.562-.233-.134-.471-.267-.7-.4-.722-.414-1.425-.822-2.12-1.229C48.882,46.447,49.347,45.625,49.8,44.8ZM17.94,22.356A7.549,7.549,0,0,0,19.219,25.2,39.715,39.715,0,0,0,26.7,32.973c5.686,4.838,13.312,9.83,20.1,14.079-.446.71-.894,1.416-1.36,2.114-.649-.409-1.3-.819-1.937-1.217-1.81-1.127-3.593-2.225-5.264-3.4-1.7-1.132-3.34-2.249-4.867-3.412a83.914,83.914,0,0,1-8.174-6.736,38.374,38.374,0,0,1-5.37-6.3,12.155,12.155,0,0,1-1.962-4.953,5.283,5.283,0,0,1,.027-1.425c.007-.036.011-.05.018-.082A2.347,2.347,0,0,0,17.94,22.356Zm1.419,6a36.841,36.841,0,0,0,5.229,6.608,78.027,78.027,0,0,0,8.087,7.012c1.516,1.208,3.152,2.362,4.845,3.53,1.665,1.2,3.448,2.331,5.256,3.485q.973.618,1.944,1.245-.831,1.22-1.684,2.428c-1.81-1.132-3.611-2.222-5.351-3.326Q35.2,47.6,32.721,45.888c-1.536-1.217-3.068-2.372-4.492-3.555-5.592-4.779-9.669-9.911-10.737-14.242a10.2,10.2,0,0,1-.158-5.1,6.566,6.566,0,0,1,.459-1.317l.007-.014-.016.039a4.7,4.7,0,0,0-.159,1.46A11.817,11.817,0,0,0,19.359,28.353ZM36.545,59.041c-6.788-4.508-12.953-9.8-16.817-15.553q-.7-1.072-1.4-2.132-.54-1.1-1.073-2.182a11.008,11.008,0,0,1-.858-2.15,18.976,18.976,0,0,1-.643-2.1,18.732,18.732,0,0,1-.235-7.417,15,15,0,0,1,1.005-3.413,12.977,12.977,0,0,0-.577,3.766c-.181,4.442,2.4,10.583,7.322,15.928,4.3,4.9,10.185,9.362,16.4,13.505-.516.7-1.034,1.412-1.55,2.114l-.351.48C37.365,59.6,36.95,59.322,36.545,59.041Zm-4.5,35.624a18.724,18.724,0,0,1-2.9-7.8,23.48,23.48,0,0,1,.98-10.377A42.24,42.24,0,0,1,35.555,65.6l1.819-2.684.9-1.213q1.4.938,2.779,1.876c-.28.387-.57.781-.848,1.166-1.229,1.765-2.392,3.557-3.5,5.3a50.727,50.727,0,0,0-2.729,5.386c-3.3,7.119-3.29,14.353-1.333,18.781a15.582,15.582,0,0,0,3.044,4.743c.057.063.1.1.158.158l-.177-.154A22.875,22.875,0,0,1,32.042,94.665Zm30.467-2.32A21.072,21.072,0,0,1,53.87,98.91a29.692,29.692,0,0,1-8.655,2.041,25.164,25.164,0,0,1-5.892-.2c-.679-.115-1.2-.22-1.552-.308-.09-.021-.138-.034-.206-.052.185.039.437.084.771.131a28.134,28.134,0,0,0,3.091.244,29.5,29.5,0,0,0,10.423-1.478,17.3,17.3,0,0,0,10.024-8.68c.584-1.26,1.12-2.539,1.6-3.824.364.815.754,1.613,1.186,2.374A24.868,24.868,0,0,1,62.509,92.344Zm28.621,8.388a24.964,24.964,0,0,1-5.876.2,29.425,29.425,0,0,1-8.63-2.021A20.986,20.986,0,0,1,67.986,92.4a24.529,24.529,0,0,1-2.2-3.236c.428-.756.817-1.543,1.179-2.351.106.281.208.575.314.849a34.5,34.5,0,0,0,1.865,4.08c.416.6.817,1.181,1.208,1.747A15.3,15.3,0,0,0,71.719,95a17.415,17.415,0,0,0,6.049,3.93,24.03,24.03,0,0,0,5.625,1.5,33.314,33.314,0,0,0,7.479.258c.486-.041.867-.084,1.2-.127C91.8,100.614,91.492,100.671,91.13,100.732Zm1.869-.5-.294-.079c-.333-.093-.831-.228-1.464-.432a39.582,39.582,0,0,1-12.495-6.66c-1.229-.994-2.48-2.12-3.745-3.338a16.044,16.044,0,0,1-1.147-3.252,13.579,13.579,0,0,1-.367-3.191,87.481,87.481,0,0,0,6.642,7.445A61.765,61.765,0,0,0,86.7,96.216c1.953,1.417,3.582,2.444,4.723,3.116.572.335,1.018.584,1.322.745.136.07.233.118.312.154Zm.211.063-.022-.018h0Zm-.039-.056c-.941-1.208-2.491-3.19-4.578-5.865-2.878-3.734-6.883-9.018-11.47-15.141-.586-.788-1.2-1.631-1.8-2.446.323-.554.659-1.091,1.023-1.593.471-.663.994-1.3,1.537-1.928,1.039,1.382,2.052,2.745,3,4.082a126.17,126.17,0,0,1,9.986,16,29.149,29.149,0,0,1,2.039,5.042,6.639,6.639,0,0,1,.312,1.86A.156.156,0,0,0,93.171,100.237Zm.056.072.014-.052.007,0-.005,0a4.626,4.626,0,0,0-.143-1.9,26.706,26.706,0,0,0-1.838-5.168,113.352,113.352,0,0,0-9.635-16.3c-.964-1.428-2.009-2.876-3.089-4.34.758-.822,1.568-1.616,2.419-2.392,1.577,2.127,3.093,4.207,4.451,6.25,4.24,6.315,7.225,12.242,8.262,16.758a12.625,12.625,0,0,1,.269,5.347,5.045,5.045,0,0,1-.64,1.7l-.009.014C93.253,100.273,93.23,100.305,93.227,100.309Zm-.152-37.394L94.895,65.6a42.31,42.31,0,0,1,5.444,10.882,23.51,23.51,0,0,1,.989,10.382,18.732,18.732,0,0,1-2.9,7.809A22.788,22.788,0,0,1,94.8,98.985c-.07.061-.12.106-.186.161.057-.059.108-.1.167-.167a15.614,15.614,0,0,0,3.043-4.754c1.953-4.433,1.957-11.669-1.342-18.786a52.314,52.314,0,0,0-2.733-5.385c-1.111-1.745-2.274-3.537-3.507-5.3-.278-.387-.57-.785-.851-1.174.921-.627,1.851-1.249,2.781-1.874Zm21.612-28a18.226,18.226,0,0,1-.641,2.1,10.765,10.765,0,0,1-.857,2.148c-.353.724-.711,1.451-1.068,2.186-.462.706-.926,1.414-1.394,2.131C106.864,49.237,100.7,54.53,93.911,59.037c-.407.283-.822.564-1.235.846l-.348-.473c-.516-.7-1.037-1.414-1.554-2.12,6.22-4.139,12.108-8.6,16.4-13.5,4.924-5.351,7.494-11.491,7.313-15.931a13.033,13.033,0,0,0-.582-3.761,15.01,15.01,0,0,1,1.011,3.41A18.654,18.654,0,0,1,114.686,34.913Z" transform="translate(-14.619 -16.373)" fill="#5b0d0b"/>
</svg>
