<svg xmlns="http://www.w3.org/2000/svg" width="74.346" height="62.822" viewBox="0 0 74.346 62.822">
  <g id="Сгруппировать_11539" data-name="Сгруппировать 11539" transform="translate(1.5 1.5)">
    <g id="Сгруппировать_11538" data-name="Сгруппировать 11538">
      <path id="Контур_4712" data-name="Контур 4712" d="M1095.124,1468.331v36.941a3.492,3.492,0,0,1-3.492,3.493h-64.361a3.493,3.493,0,0,1-3.493-3.493v-36.941" transform="translate(-1023.778 -1448.943)" fill="none" stroke="#fff" stroke-miterlimit="10" stroke-width="3"/>
      <g id="Сгруппировать_11064" data-name="Сгруппировать 11064" transform="translate(11.958)">
        <g id="Сгруппировать_11063" data-name="Сгруппировать 11063" transform="translate(0 6.536)">
          <path id="Контур_4713" data-name="Контур 4713" d="M1045.193,1445.6a3.227,3.227,0,0,0-.262,1.266,3.306,3.306,0,0,0,6.613,0,3.221,3.221,0,0,0-.262-1.266" transform="translate(-1044.931 -1445.598)" fill="none" stroke="#fff" stroke-linecap="round" stroke-miterlimit="10" stroke-width="3"/>
        </g>
        <line id="Линия_131" data-name="Линия 131" y1="7.744" transform="translate(3.307)" fill="none" stroke="#fff" stroke-linecap="round" stroke-miterlimit="10" stroke-width="3"/>
      </g>
      <g id="Сгруппировать_11066" data-name="Сгруппировать 11066" transform="translate(52.775)">
        <g id="Сгруппировать_11065" data-name="Сгруппировать 11065" transform="translate(0 6.536)">
          <path id="Контур_4714" data-name="Контур 4714" d="M1123.482,1445.6a3.219,3.219,0,0,1,.262,1.266,3.306,3.306,0,0,1-6.613,0,3.221,3.221,0,0,1,.262-1.266" transform="translate(-1117.131 -1445.598)" fill="none" stroke="#fff" stroke-linecap="round" stroke-miterlimit="10" stroke-width="3"/>
        </g>
        <line id="Линия_132" data-name="Линия 132" y1="7.744" transform="translate(3.307)" fill="none" stroke="#fff" stroke-linecap="round" stroke-miterlimit="10" stroke-width="3"/>
      </g>
      <line id="Линия_133" data-name="Линия 133" x1="33.508" transform="translate(18.919 2.146)" fill="none" stroke="#fff" stroke-linecap="round" stroke-miterlimit="10" stroke-width="3"/>
      <path id="Контур_4715" data-name="Контур 4715" d="M1035.389,1437.833h-8.118a3.493,3.493,0,0,0-3.493,3.493v13.749h71.346v-13.749a3.492,3.492,0,0,0-3.492-3.493h-8.118" transform="translate(-1023.778 -1435.687)" fill="none" stroke="#fff" stroke-linecap="round" stroke-miterlimit="10" stroke-width="3"/>
      <path id="Контур_4716" data-name="Контур 4716" d="M1088.557,1497.044h-5.785v-5.785h-2.94v5.785h-5.785v2.94h5.785v5.785h2.94v-5.785h5.785Z" transform="translate(-1045.629 -1458.909)" fill="#fff"/>
      <circle id="Эллипс_6" data-name="Эллипс 6" cx="14.436" cy="14.436" r="14.436" transform="translate(21.237 25.168)" fill="none" stroke="#fff" stroke-linecap="round" stroke-miterlimit="10" stroke-width="3"/>
      <path id="Контур_4717" data-name="Контур 4717" d="M1088.108,1449.307a5.964,5.964,0,0,1-11.912,0h-28.905a5.964,5.964,0,0,1-11.911,0h-6.327v6.642h65.383v-6.642Z" transform="translate(-1026.071 -1440.674)" fill="#fff"/>
    </g>
  </g>
</svg>
