<svg xmlns="http://www.w3.org/2000/svg" width="56.64" height="73.63" viewBox="0 0 56.64 73.63">
  <g id="Сгруппировать_11623" data-name="Сгруппировать 11623" transform="translate(1.533 1.516)">
    <g id="Сгруппировать_11541" data-name="Сгруппировать 11541">
      <g id="Сгруппировать_11535" data-name="Сгруппировать 11535">
        <path id="Прямоугольник_2390" data-name="Прямоугольник 2390" d="M2.145,0h0A2.143,2.143,0,0,1,4.288,2.143v1.8a0,0,0,0,1,0,0H0a0,0,0,0,1,0,0v-1.8A2.145,2.145,0,0,1,2.145,0Z" transform="matrix(-0.997, -0.084, 0.084, -0.997, 11.539, 8.696)" fill="#fff"/>
        <path id="Контур_4657" data-name="Контур 4657" d="M513.859,503.163l-.052-.443a1.746,1.746,0,0,1,1.54-1.933h0a1.746,1.746,0,0,1,1.926,1.5l.038.278c5.57-.713,9.459,3.193,7.226,9.929-3.306,9.975-8.626,23.122-16.7,23.122s-13.393-13.147-16.7-23.122c-2.233-6.737,1.656-10.642,7.226-9.929l.038-.278a1.746,1.746,0,0,1,1.925-1.5h0a1.746,1.746,0,0,1,1.54,1.933l-.052.443" transform="translate(-490.497 -500.775)" fill="none" stroke="#fff" stroke-linecap="round" stroke-miterlimit="10" stroke-width="3"/>
        <path id="Прямоугольник_2391" data-name="Прямоугольник 2391" d="M0,0H4.288a0,0,0,0,1,0,0V1.8A2.143,2.143,0,0,1,2.145,3.944h0A2.145,2.145,0,0,1,0,1.8V0A0,0,0,0,1,0,0Z" transform="matrix(0.997, -0.084, 0.084, 0.997, 22.812, 4.766)" fill="#fff"/>
        <circle id="Эллипс_3" data-name="Эллипс 3" cx="7.364" cy="7.364" r="7.364" transform="translate(38.879 33.782)" fill="none" stroke="#fff" stroke-linecap="round" stroke-miterlimit="10" stroke-width="3"/>
        <path id="Контур_4658" data-name="Контур 4658" d="M569.264,572.8a4.4,4.4,0,0,1-3.638-1.929,3.943,3.943,0,1,0,7.276,0A4.4,4.4,0,0,1,569.264,572.8Z" transform="translate(-523.021 -531.244)" fill="#fff"/>
        <path id="Контур_4659" data-name="Контур 4659" d="M508.841,562.4v21.131a8.9,8.9,0,0,1-8.9,8.9,6.906,6.906,0,0,1-7.121-7.121c.226-3.573,2.567-5.439,5.7-5.7a6.944,6.944,0,0,1,6.217,3.191" transform="translate(-491.501 -527.563)" fill="none" stroke="#fff" stroke-linecap="round" stroke-miterlimit="10" stroke-width="3"/>
        <path id="Контур_4660" data-name="Контур 4660" d="M522.6,601.371s7.122,7.316,16.531,7.316h0A11.564,11.564,0,0,0,550.7,597.124V586.583" transform="translate(-504.452 -538.073)" fill="none" stroke="#fff" stroke-linecap="round" stroke-miterlimit="10" stroke-width="3"/>
        <path id="Контур_4661" data-name="Контур 4661" d="M573.569,555.646a10.383,10.383,0,0,0-11.017,0" transform="translate(-521.818 -523.938)" fill="none" stroke="#fff" stroke-linecap="round" stroke-miterlimit="10" stroke-width="3"/>
      </g>
    </g>
  </g>
</svg>
