<svg xmlns="http://www.w3.org/2000/svg" width="75.501" height="74.251" viewBox="0 0 75.501 74.251">
  <g id="Сгруппировать_11624" data-name="Сгруппировать 11624" transform="translate(1.5 1.5)">
    <path id="Контур_4718" data-name="Контур 4718" d="M2915.467,2044.708a31.691,31.691,0,1,1,21.711-22.95" transform="translate(-2874.6 -1982.589)" fill="none" stroke="#fff" stroke-linecap="round" stroke-linejoin="round" stroke-width="3"/>
    <g id="Сгруппировать_11068" data-name="Сгруппировать 11068" transform="translate(44.428 48.49)">
      <path id="Контур_4719" data-name="Контур 4719" d="M2958.343,2078.669h-5.154v-3.436a2.581,2.581,0,0,1,2.577-2.577.85.85,0,0,0,.859-.859v-.859a.859.859,0,1,0-1.718,0h-1.718a2.577,2.577,0,0,1,5.154,0v.859a2.581,2.581,0,0,1-2.577,2.577.851.851,0,0,0-.859.859v1.288a.38.38,0,0,0,.43.43h3.006Z" transform="translate(-2953.189 -2068.362)" fill="#fff"/>
      <path id="Контур_4720" data-name="Контур 4720" d="M2970.108,2078.669h-1.718v-3.436h-3.436v-1.718l2.577-5.153h2.577Zm-1.718-5.584v-3.006l-1.718,3.436h1.288A.38.38,0,0,0,2968.39,2073.085Z" transform="translate(-2958.303 -2068.362)" fill="#fff"/>
      <path id="Контур_4721" data-name="Контур 4721" d="M2986.679,2078.669h-1.718v-5.154a.859.859,0,1,0-1.718,0v5.154h-1.718v-10.307h1.718v2.731a2.509,2.509,0,0,1,.859-.155,2.582,2.582,0,0,1,2.577,2.576Z" transform="translate(-2965.506 -2068.362)" fill="#fff"/>
    </g>
    <circle id="Эллипс_7" data-name="Эллипс 7" cx="16.386" cy="16.386" r="16.386" transform="translate(37.386 38.46) rotate(-4.065)" fill="none" stroke="#fff" stroke-linecap="round" stroke-linejoin="round" stroke-width="3"/>
    <g id="Сгруппировать_11069" data-name="Сгруппировать 11069" transform="translate(24.948 24.948)">
      <line id="Линия_134" data-name="Линия 134" y2="13.559" transform="translate(6.779)" fill="none" stroke="#fff" stroke-linecap="round" stroke-linejoin="round" stroke-width="3"/>
      <line id="Линия_135" data-name="Линия 135" x1="13.559" transform="translate(0 6.78)" fill="none" stroke="#fff" stroke-linecap="round" stroke-linejoin="round" stroke-width="3"/>
    </g>
    <path id="Контур_4722" data-name="Контур 4722" d="M2913.868,1999.935a21.922,21.922,0,1,0,3.394,43.581,19.654,19.654,0,0,1,1.869-8.138,14.508,14.508,0,1,1,8.527-9.011,19.639,19.639,0,0,1,8.021-2.322c.071-.719.109-1.449.109-2.188A21.922,21.922,0,0,0,2913.868,1999.935Z" transform="translate(-2882.14 -1990.129)" fill="#fff"/>
  </g>
</svg>
