<svg xmlns="http://www.w3.org/2000/svg" width="74.626" height="72.47" viewBox="0 0 74.626 72.47">
  <g id="Сгруппировать_11544" data-name="Сгруппировать 11544" transform="translate(1.5 1.5)">
    <g id="Сгруппировать_11540" data-name="Сгруппировать 11540">
      <path id="Контур_4877" data-name="Контур 4877" d="M304.1,2033.577l-15.548.071a4.092,4.092,0,0,1-4.11-4.073l-.18-39.4a4.09,4.09,0,0,1,4.072-4.109l63.265-.29a4.091,4.091,0,0,1,4.109,4.071l.18,39.4a4.091,4.091,0,0,1-4.072,4.109l-15.548.071" transform="translate(-284.267 -1985.777)" fill="none" stroke="#fff" stroke-linecap="round" stroke-miterlimit="10" stroke-width="3"/>
      <path id="Контур_4878" data-name="Контур 4878" d="M350.5,2061.028a11.659,11.659,0,1,0-11.6,11.711A11.658,11.658,0,0,0,350.5,2061.028Z" transform="translate(-302.922 -2013.441)" fill="none" stroke="#fff" stroke-miterlimit="10" stroke-width="3"/>
      <path id="Контур_4879" data-name="Контур 4879" d="M343.368,2056.653a6.343,6.343,0,1,1-8.929,9.011,7.7,7.7,0,1,0,8.929-9.011Z" transform="translate(-306.076 -2016.585)" fill="#fff"/>
      <path id="Контур_4880" data-name="Контур 4880" d="M350.41,2044.181a16.535,16.535,0,0,0-23.384.107" transform="translate(-302.853 -2009.081)" fill="none" stroke="#fff" stroke-linecap="round" stroke-miterlimit="10" stroke-width="3"/>
      <path id="Контур_4881" data-name="Контур 4881" d="M353.671,2083.939l8.246,8.171-.037-8.181,8.18-.038-8.247-8.17" transform="translate(-314.435 -2024.873)" fill="none" stroke="#fff" stroke-linecap="round" stroke-miterlimit="10" stroke-width="3"/>
      <path id="Контур_4882" data-name="Контур 4882" d="M329.53,2084.05l-8.171,8.246-.037-8.181-8.18.038,8.171-8.246" transform="translate(-296.818 -2024.954)" fill="none" stroke="#fff" stroke-linecap="round" stroke-miterlimit="10" stroke-width="3"/>
      <line id="Линия_232" data-name="Линия 232" x1="30.437" y2="0.139" transform="translate(20.737 20.201)" fill="none" stroke="#fff" stroke-linecap="round" stroke-miterlimit="10" stroke-width="3"/>
      <line id="Линия_233" data-name="Линия 233" y1="0.189" x2="41.159" transform="translate(15.318 13.069)" fill="none" stroke="#fff" stroke-linecap="round" stroke-miterlimit="10" stroke-width="3"/>
    </g>
  </g>
</svg>
